<svg xmlns="http://www.w3.org/2000/svg" viewBox="0 0 1165.921 397.558">
  <defs>
    <style>
      .cls-1 {
        fill: #fff;
      }

      .cls-2 {
        fill: red;
      }
    </style>
  </defs>
  <g id="logo_reversed" transform="translate(-282.728 -49.037)">
    <g id="Group_7" data-name="Group 7" transform="translate(282.728 73.318)">
      <g id="Group_3" data-name="Group 3" transform="translate(1.448)">
        <g id="Group_1" data-name="Group 1">
          <path id="Path_1" data-name="Path 1" class="cls-1" d="M65.258,177.38H14.6V0H207.1V47.346H65.258Z" transform="translate(-14.6)"/>
        </g>
        <g id="Group_2" data-name="Group 2" transform="translate(192.503 177.38)">
          <path id="Path_2" data-name="Path 2" class="cls-1" d="M233.7,203.98H41.2V157.3H182.323V26.6H233.7Z" transform="translate(-41.2 -26.6)"/>
        </g>
      </g>
      <path id="Path_3" data-name="Path 3" class="cls-2" d="M368.293,0,14.4,319.415l36.185,33.341,351.7-317.415Z" transform="translate(-14.4)"/>
    </g>
    <g id="Group_8" data-name="Group 8" transform="translate(783.549 49.037)">
      <path id="Path_4" data-name="Path 4" class="cls-1" d="M49,245.575H0V79.389H47.628v20.7C58.533,82.526,80.313,75,100.049,75c44.921,0,65.339,29.474,65.339,65.848v104.73h-49v-97.2c0-18.814-10.208-33.237-33.349-33.237-21.1,0-34.031,15.051-34.031,34.491v95.95Z" transform="translate(0 -0.372)"/>
      <path id="Path_5" data-name="Path 5" class="cls-1" d="M76.1,163.225c0,30.1,21.1,47.034,46.282,47.034s37.432-15.051,41.516-28.22l42.877,13.168c-8.167,27.594-36.071,56.442-84.4,56.442-53.088,0-95.284-37-95.284-88.425S67.937,74.8,121.022,74.8c49,0,76.908,28.22,85.076,56.439l-44.248,13.8c-4.084-13.8-15.653-28.22-40.155-28.22S76.1,133.125,76.1,163.225Z" transform="translate(157.346 -1.427)"/>
      <path id="Path_6" data-name="Path 6" class="cls-1" d="M159.751,211.727,233.258,308.3H173.373l-47.628-63.339L105.3,264.406v43.885h-49V63.1h49V203.576l62.614-62.085H231.9Z" transform="translate(326.881 -63.1)"/>
    </g>
    <path id="Path_8" data-name="Path 8" class="cls-1" d="M21.817,138.166H33.93V147.1H21.817v26.806a6.374,6.374,0,0,0,2.082,5.536,7.634,7.634,0,0,0,6.017,1.894,6.487,6.487,0,0,0,4.013-.746v8.935a67.823,67.823,0,0,1-7.271.743c-9.7,0-15.352-5.211-15.352-14.892v-28.3H0v-8.915H3.232A8.484,8.484,0,0,0,9.8,136.032a7.1,7.1,0,0,0,2.316-6.055v-8.189h9.7Zm75.157,36.484c-3.511,9.956-13.691,16.614-25.05,16.382-15.352,0-28.282-10.421-28.282-27.566,0-16.382,12.93-27.566,26.666-27.566,16.969,0,26.666,11.168,26.666,26.806v2.978H54.952A14.66,14.66,0,0,0,59.8,176.853a17.343,17.343,0,0,0,12.12,4.468c7.342.346,14-3.947,16.162-10.421Zm-11.31-16.382a12.62,12.62,0,0,0-4.438-9.851,14.975,14.975,0,0,0-10.915-3.552c-8.09.179-14.722,5.969-15.352,13.4Zm32.325,5.211c0,11.914,8.081,17.871,16.969,17.871,7.2.477,13.712-3.942,15.352-10.421l9.7,3.721c-3.406,10.027-13.653,16.728-25.05,16.381-16.162,0-28.282-11.914-28.282-27.566,0-16.382,12.12-27.566,28.282-27.566,11.4-.345,21.642,6.358,25.046,16.385l-9.69,3.735c-1.475-6.675-7.963-11.395-15.352-11.168-8.9.743-16.98,6.7-16.98,18.614Zm66.255,26.047h-11.31v-78.18h11.31v32.017a20.989,20.989,0,0,1,16.969-7.446c13.736,0,20.2,8.935,20.2,20.1v32.763H210.1V158.256c0-7.446-3.232-12.657-12.93-12.657-8.081,0-12.93,5.957-12.93,13.4Zm65.456,0h-11.31v-51.36h10.5v7.446a18.636,18.636,0,0,1,16.969-8.935c13.736,0,20.2,8.935,20.2,20.1v32.763h-11.31V158.279c0-7.446-3.232-12.657-12.93-12.657-8.887,0-12.93,6.7-12.93,14.146v29.785Zm107.478-26.06c-.446,14.707-13.669,26.336-29.634,26.062s-28.708-12.349-28.56-27.061,13.134-26.566,29.1-26.567a29.954,29.954,0,0,1,21,8A25.3,25.3,0,0,1,357.177,163.466Zm-11.31,0c0-11.914-8.081-18.614-17.779-18.614s-17.779,6.7-17.779,18.614,8.081,18.614,17.779,18.614S345.867,175.38,345.867,163.466Zm25.05,26.06v-78.18h11.31v78.183Zm82.424-26.06c-.446,14.707-13.669,26.336-29.634,26.062S395,177.179,395.147,162.467s13.134-26.566,29.1-26.567a29.953,29.953,0,0,1,21,8,25.3,25.3,0,0,1,8.09,19.568Zm-11.31,0c0-11.914-8.081-18.614-17.779-18.614s-17.779,6.7-17.779,18.614,8.081,18.614,17.779,18.614,17.775-6.7,17.775-18.614Zm31.529,26.806a13.009,13.009,0,0,0,4.812,9.257,15.311,15.311,0,0,0,10.511,3.4c12.12,0,16.969-5.957,16.969-17.124v-7.446a19.282,19.282,0,0,1-16.969,8.189c-14.546,0-25.86-10.421-25.86-25.317,0-14.146,10.5-25.317,25.86-25.317,8.887,0,14.546,2.979,16.969,8.189v-7.446h11.31v47.655c0,13.4-7.271,26.06-28.282,26.06-12.73.605-23.9-7.755-25.86-19.36Zm33.131-28.3c0-9.678-6.465-16.382-16.162-16.382s-16.162,6.7-16.162,16.382c0,10.421,6.465,16.382,16.162,16.382s16.148-6.7,16.148-16.382ZM539.822,110.6c4.463,0,8.081,3.334,8.081,7.446s-3.618,7.446-8.081,7.446-8.081-3.334-8.081-7.446a9.075,9.075,0,0,1,8.067-7.446Zm-4.849,78.926v-51.36h10.5v51.377Zm78.386-14.892c-3.511,9.956-13.691,16.614-25.05,16.382-15.352,0-28.282-10.421-28.282-27.566,0-16.382,12.93-27.566,26.666-27.566,16.969,0,26.666,11.168,26.666,26.806v2.979H571.337a14.659,14.659,0,0,0,4.849,11.168,17.343,17.343,0,0,0,12.12,4.468c7.342.346,14-3.947,16.162-10.421Zm-11.31-16.382a12.62,12.62,0,0,0-4.438-9.851,14.975,14.975,0,0,0-10.915-3.552c-8.09.179-14.722,5.969-15.352,13.4Zm29.917,14.892c.744,5.926,6.483,10.222,12.93,9.678,6.465,0,9.7-2.979,9.7-6.7a7.458,7.458,0,0,0-7.271-6.7l-9.7-2.235c-8.068-.946-14.024-7.4-13.736-14.892,0-8.935,8.888-16.382,20.2-16.382,15.352,0,20.2,8.935,21.011,14.146l-9.7,2.978c-.557-5.293-5.548-9.236-11.31-8.935-5.655,0-9.7,2.979-9.7,6.7,0,2.979,2.423,5.211,6.465,5.957l8.888,1.489c10.5,2.236,15.352,7.446,15.352,15.635,0,7.446-6.465,16.382-20.2,16.382-15.352,0-21.817-8.935-22.62-14.892Z" transform="translate(783.549 236.192)"/>
  </g>
</svg>
