<svg id="Layer_1" data-name="Layer 1" xmlns="http://www.w3.org/2000/svg" viewBox="0 0 78 78"><defs><style>.cls-1,.cls-2{fill:none;stroke-linecap:round;stroke-linejoin:round;stroke-width:2px;}.cls-1{stroke:#2d9bf3;}.cls-2{stroke:#48578c;}.cls-3{fill:#48578c;}.cls-4{fill:#2d9bf3;}.cls-5{fill:#2ce9d3;}</style></defs><title>3</title><path class="cls-1" d="M48.22,50a3.17,3.17,0,0,0,.48,1.56,5.5,5.5,0,0,0,2.08,1.64h0a6.33,6.33,0,0,1-2.56.76,6.66,6.66,0,0,1-4.48-1.41h0A14.4,14.4,0,1,1,48.22,50"/><circle class="cls-2" cx="12.9" cy="64.95" r="7.5"/><path class="cls-2" d="M39,18.31v-.89a4.9,4.9,0,0,1,4.9-4.91h9.85"/><polygon class="cls-3" points="41.99 17.44 39 22.62 36.01 17.44 41.99 17.44"/><path class="cls-2" d="M39,60.28v.89a4.91,4.91,0,0,1-4.91,4.91H24.57"/><polygon class="cls-3" points="35.98 61.15 38.97 55.97 41.96 61.15 35.98 61.15"/><path class="cls-4" d="M44.05,44.43a.85.85,0,0,1-.61-.25.85.85,0,0,1,0-1.21l3.47-3.47-3.47-3.44a.85.85,0,0,1,0-1.21.85.85,0,0,1,1.21,0l4.08,4a.86.86,0,0,1,0,1.21l-4.08,4.08A.82.82,0,0,1,44.05,44.43Z"/><path class="cls-4" d="M34,44.43a.82.82,0,0,1-.6-.25L29.27,40.1a.85.85,0,0,1,0-1.21l4.08-4.08A.86.86,0,0,1,34.56,36L31.09,39.5,34.56,43a.85.85,0,0,1,0,1.21A.85.85,0,0,1,34,44.43Z"/><path class="cls-4" d="M36.12,44.5a.92.92,0,0,1-.48-.14.86.86,0,0,1-.23-1.19l5.76-8.63a.85.85,0,1,1,1.42,1l-5.76,8.63A.83.83,0,0,1,36.12,44.5Z"/><path class="cls-5" d="M42.55,73.08A1,1,0,0,1,43.41,72h0a1,1,0,0,1,1.13.86h0a1,1,0,0,1-.87,1.12h0A1,1,0,0,1,42.55,73.08Zm-3,1.16a1,1,0,0,1-1-1h0a1,1,0,0,1,1-1h0a1,1,0,0,1,1,1h0a1,1,0,0,1-.9,1h0A.14.14,0,0,1,39.57,74.24Zm6.93-1.8a1,1,0,0,1,.72-1.22h0a1,1,0,0,1,1.22.73h0a1,1,0,0,1-.73,1.21h0a.61.61,0,0,1-.13,0h0A1,1,0,0,1,46.5,72.44Zm-11,1.63A1,1,0,0,1,34.57,73h0a1,1,0,0,1,1.09-.89h0a1,1,0,0,1,.9,1.09h0a1,1,0,0,1-.89.9h0A.5.5,0,0,1,35.46,74.07Zm14.88-2.73a1,1,0,0,1,.58-1.29h0a1,1,0,0,1,1.29.57h0a1,1,0,0,1-.58,1.3h0a.66.66,0,0,1-.25.07h0A1,1,0,0,1,50.34,71.34ZM31.4,73.43h0a1,1,0,0,1-.76-1.2h0a1,1,0,0,1,1.19-.75h0a1,1,0,0,1,.76,1.18h0a1,1,0,0,1-.87.78h0A.87.87,0,0,1,31.4,73.43ZM54,69.8a1,1,0,0,1,.42-1.35h0a1,1,0,0,1,1.35.43h0a1,1,0,0,1-.43,1.34h0a1.08,1.08,0,0,1-.36.11h0A1,1,0,0,1,54,69.8Zm-26.6,2.51h0A1,1,0,0,1,26.82,71h0a1,1,0,0,1,1.27-.62h0a1,1,0,0,1,.63,1.27h0a1,1,0,0,1-.85.67h0A1.06,1.06,0,0,1,27.44,72.31Zm30.08-4.47a1,1,0,0,1,.26-1.39h0a1,1,0,0,1,1.39.26h0a1,1,0,0,1-.26,1.39h0a1.17,1.17,0,0,1-.46.17h0A1,1,0,0,1,57.52,67.84Zm3.23-2.36a1,1,0,0,1,.09-1.4h0a1,1,0,0,1,1.42.08h0a1,1,0,0,1-.1,1.41h0a.91.91,0,0,1-.55.24h0A1,1,0,0,1,60.75,65.48Zm2.94-2.72a1,1,0,0,1-.07-1.41h0A1,1,0,0,1,65,61.28h0a1,1,0,0,1,.07,1.42h0a1,1,0,0,1-.64.32h0A1,1,0,0,1,63.69,62.76Zm2.6-3a1,1,0,0,1-.23-1.4h0a1,1,0,0,1,1.39-.23h0a1,1,0,0,1,.23,1.39h0a1,1,0,0,1-.71.42h0A1,1,0,0,1,66.29,59.73Zm2.22-3.32a1,1,0,0,1-.38-1.36h0a1,1,0,0,1,1.35-.4h0a1,1,0,0,1,.4,1.37h0a1,1,0,0,1-.77.5h0A.93.93,0,0,1,68.51,56.41Zm1.83-3.55a1,1,0,0,1-.54-1.31h0A1,1,0,0,1,71.11,51h0a1,1,0,0,1,.54,1.3h0a1,1,0,0,1-.82.62h0A1.21,1.21,0,0,1,70.34,52.86Zm1.41-3.74a1,1,0,0,1-.7-1.24h0a1,1,0,0,1,1.23-.69h0a1,1,0,0,1,.7,1.23h0a1,1,0,0,1-.86.73h0A1.16,1.16,0,0,1,71.75,49.12Zm1-3.89a1,1,0,0,1-.84-1.14h0A1,1,0,0,1,73,43.26h0a1,1,0,0,1,.84,1.13h0a1,1,0,0,1-.87.84h0A1.13,1.13,0,0,1,72.71,45.23Zm.49-4a1,1,0,0,1-1-1h0a1,1,0,0,1,1-1h0a1,1,0,0,1,1,1h0a1,1,0,0,1-.89,1H73.2Zm0-4a1,1,0,0,1-1.07-.92h0a1,1,0,0,1,.92-1.07h0a1,1,0,0,1,1.07.91h0a1,1,0,0,1-.89,1.08h0Zm-1.61-4.76a1,1,0,0,1,.79-1.18h0a1,1,0,0,1,1.17.78h0a1,1,0,0,1-.78,1.18H72.7A1,1,0,0,1,71.61,32.51Zm-1-3.76a1,1,0,0,1,.64-1.26h0a1,1,0,0,1,1.26.64h0a1,1,0,0,1-.64,1.27h0l-.21,0h0A1,1,0,0,1,70.64,28.75Zm-1.42-3.61a1,1,0,0,1,.49-1.33h0A1,1,0,0,1,71,24.3h0a1,1,0,0,1-.49,1.32h0a.91.91,0,0,1-.31.09h0A1,1,0,0,1,69.22,25.14Z"/><path class="cls-5" d="M7,53.85H7a1,1,0,0,1,.49-1.34h0A1,1,0,0,1,8.84,53h0a1,1,0,0,1-.49,1.34h0a.84.84,0,0,1-.31.08H8A1,1,0,0,1,7,53.85ZM5.51,50h0a1,1,0,0,1,.64-1.27h0a1,1,0,0,1,1.26.64h0a1,1,0,0,1-.63,1.26h0l-.21.05h0A1,1,0,0,1,5.51,50Zm-1-4a1,1,0,0,1,.77-1.18h0a1,1,0,0,1,1.19.77h0a1,1,0,0,1-.78,1.18h0l-.09,0h0A1,1,0,0,1,4.46,46.05ZM5,42.88A1,1,0,0,1,3.88,42h0a1,1,0,0,1,.9-1.08h0a1,1,0,0,1,1.09.91h0A1,1,0,0,1,5,42.88H5Zm-.22-4a1,1,0,0,1-1-1h0a1,1,0,0,1,1-1h0a1,1,0,0,1,1,1h0a1,1,0,0,1-.89,1H4.73Zm.24-4a1,1,0,0,1-.83-1.14h0a1,1,0,0,1,1.13-.85h0a1,1,0,0,1,.84,1.14h0a1,1,0,0,1-.88.85h0A1.13,1.13,0,0,1,5,34.91ZM5.68,31A1,1,0,0,1,5,29.74H5A1,1,0,0,1,6.21,29h0a1,1,0,0,1,.69,1.22h0a1,1,0,0,1-.85.74h0A1.18,1.18,0,0,1,5.68,31Zm1.16-3.83a1,1,0,0,1-.56-1.3h0a1,1,0,0,1,1.31-.55h0a1,1,0,0,1,.56,1.3h0a1,1,0,0,1-.83.62h0A1,1,0,0,1,6.84,27.14Zm1.6-3.65a1,1,0,0,1-.39-1.37h0a1,1,0,0,1,1.35-.4h0a1,1,0,0,1,.4,1.37h0A1,1,0,0,1,9,23.6H9A1,1,0,0,1,8.44,23.49Zm2-3.46a1,1,0,0,1-.24-1.39h0a1,1,0,0,1,1.4-.24h0a1,1,0,0,1,.24,1.4h0a1,1,0,0,1-.71.41h0A1,1,0,0,1,10.46,20Zm2.4-3.2a1,1,0,0,1-.07-1.41h0a1,1,0,0,1,1.41-.07h0a1,1,0,0,1,.07,1.41h0a1,1,0,0,1-.62.33h0A1,1,0,0,1,12.86,16.83Zm2.77-2.89a1,1,0,0,1,.09-1.41h0a1,1,0,0,1,1.41.09h0A1,1,0,0,1,17,14h0a1,1,0,0,1-.56.25h0A1,1,0,0,1,15.63,13.94Zm3.07-2.56A1,1,0,0,1,19,10h0a1,1,0,0,1,1.4.25h0a1,1,0,0,1-.26,1.39h0a1,1,0,0,1-.46.17h0A1,1,0,0,1,18.7,11.38ZM49.76,7.53a1,1,0,0,1-.62-1.27h0a1,1,0,0,1,1.26-.62h0A1,1,0,0,1,51,6.91h0a1,1,0,0,1-.84.68h0A.9.9,0,0,1,49.76,7.53ZM22.06,9.21a1,1,0,0,1,.41-1.35h0a1,1,0,0,1,1.36.4h0a1,1,0,0,1-.42,1.36h0a1.18,1.18,0,0,1-.36.12h0A1,1,0,0,1,22.06,9.21ZM46,6.5a1,1,0,0,1-.76-1.2h0a1,1,0,0,1,1.19-.76h0a1,1,0,0,1,.77,1.18h0a1,1,0,0,1-.87.79h0A1.23,1.23,0,0,1,46,6.5Zm-20.37.93a1,1,0,0,1,.57-1.28h0a1,1,0,0,1,1.3.56h0A1,1,0,0,1,26.94,8h0a1.22,1.22,0,0,1-.26.06h0A1,1,0,0,1,25.64,7.43ZM42.18,5.9a1,1,0,0,1-.89-1.09h0a1,1,0,0,1,1.09-.91h0A1,1,0,0,1,43.27,5h0a1,1,0,0,1-.88.9h-.21Zm-12.76.2a1,1,0,0,1,.71-1.22h0a1,1,0,0,1,1.21.72h0a1,1,0,0,1-.71,1.21h0l-.15,0h0A1,1,0,0,1,29.42,6.1Zm8.88-.35h0a1,1,0,0,1-1-1h0a1,1,0,0,1,1-1h0a1,1,0,0,1,1,1h0a1,1,0,0,1-.9,1H38.3Zm-5-.54a1,1,0,0,1,.87-1.13h0a1,1,0,0,1,1.12.85h0a1,1,0,0,1-.86,1.13h0A1,1,0,0,1,33.3,5.21Z"/><polyline class="cls-2" points="63.58 12.61 64.91 13.94 67.25 11.59"/><line class="cls-2" x1="10.98" y1="63.02" x2="14.83" y2="66.87"/><line class="cls-2" x1="14.83" y1="63.02" x2="10.98" y2="66.87"/><circle class="cls-2" cx="65.41" cy="12.76" r="7.5"/></svg>