<svg id="Layer_1" data-name="Layer 1" xmlns="http://www.w3.org/2000/svg" viewBox="0 0 78 78"><defs><style>.cls-1{fill:#e5f0fa;}.cls-2,.cls-3{fill:none;stroke-linecap:round;stroke-linejoin:round;stroke-width:2px;}.cls-2{stroke:#465589;}.cls-3{stroke:#2d9bf3;}.cls-4{fill:#2ce9d3;}.cls-5{fill:#465589;}</style></defs><title>2</title><circle class="cls-1" cx="39.56" cy="39.17" r="9.35"/><path class="cls-2" d="M8.16,38.26H24.87A2.23,2.23,0,0,0,27.09,36V7.69a2.3,2.3,0,0,0-2.22-2.22H8.16A2.3,2.3,0,0,0,5.93,7.69V36A2.17,2.17,0,0,0,8.16,38.26Z"/><circle class="cls-3" cx="16.41" cy="19.01" r="2.43"/><path class="cls-3" d="M11,28.63h0a4.25,4.25,0,0,1,4.23-4.23h2.65a4.24,4.24,0,0,1,4.23,4.23h0"/><path class="cls-4" d="M46.08,63a1,1,0,0,1-.71-.29,1.05,1.05,0,0,1-.29-.71,1,1,0,0,1,.29-.7,1,1,0,0,1,1.09-.22,1,1,0,0,1,.54,1.3.93.93,0,0,1-.21.33A1,1,0,0,1,46.08,63Z"/><path class="cls-4" d="M41.81,62.58h0a1,1,0,0,1-.53-1.31h0a1,1,0,0,1,1.31-.53h0a1,1,0,0,1,.53,1.31h0a1,1,0,0,1-.92.61h0A1.09,1.09,0,0,1,41.81,62.58Zm-3.09-3.49a1,1,0,0,1,.69-1.23h0a1,1,0,0,1,1.24.68h0A1,1,0,0,1,40,59.78h0a.86.86,0,0,1-.28,0h0A1,1,0,0,1,38.72,59.09Zm-.2-4.18a1,1,0,0,1,1-1h0a1,1,0,0,1,1,1h0a1,1,0,0,1-1,1h0A1,1,0,0,1,38.52,54.91Zm0-3.92a1,1,0,0,1,1-1h0a1,1,0,0,1,1,1h0a1,1,0,0,1-1,1h0A1,1,0,0,1,38.52,51Zm0-3.93a1,1,0,0,1,1-1h0a1,1,0,0,1,1,1h0a1,1,0,0,1-1,1h0A1,1,0,0,1,38.52,47.06Zm0-3.92a1,1,0,0,1,1-1h0a1,1,0,0,1,1,1h0a1,1,0,0,1-1,1h0A1,1,0,0,1,38.52,43.14Z"/><path class="cls-4" d="M39.52,40.21l-.2,0-.18-.06L39,40l-.15-.12a1.15,1.15,0,0,1-.21-.33.94.94,0,0,1,0-.76.93.93,0,0,1,.21-.33.79.79,0,0,1,.15-.12l.18-.09.18-.06a1,1,0,0,1,.9.27.83.83,0,0,1,.22.33,1,1,0,0,1-.22,1.09A1,1,0,0,1,39.52,40.21Z"/><path class="cls-4" d="M33,19.32l-.2,0-.19-.06-.17-.09a.93.93,0,0,1-.15-.13A1,1,0,0,1,32,18.7a1,1,0,0,1-.07-.38,1.07,1.07,0,0,1,.07-.39,1,1,0,0,1,.22-.32.57.57,0,0,1,.15-.12,1,1,0,0,1,.17-.1l.19-.05a1.05,1.05,0,0,1,.58.05,1,1,0,0,1,.32.22.87.87,0,0,1,.22.32,1.09,1.09,0,0,1,.08.39,1,1,0,0,1-.3.7A1,1,0,0,1,33,19.32Z"/><path class="cls-4" d="M38.51,34.94a1,1,0,0,1,1-1h0a1,1,0,0,1,1,1h0a1,1,0,0,1-1,1h0A1,1,0,0,1,38.51,34.94Zm0-4.26a1,1,0,0,1,1-1h0a1,1,0,0,1,1,1h0a1,1,0,0,1-1,1h0A1,1,0,0,1,38.51,30.68Zm0-4.26a1,1,0,0,1,1-1h0a1,1,0,0,1,1,1h0a1,1,0,0,1-1,1h0A1,1,0,0,1,38.51,26.42Zm0-4.14a1,1,0,0,1,.87-1.11h0a1,1,0,0,1,1.12.87h0a1,1,0,0,1-.87,1.11h-.12A1,1,0,0,1,38.48,22.28Zm-1.81-2.59h0a1,1,0,0,1-.43-1.35h0a1,1,0,0,1,1.35-.42h0A1,1,0,0,1,38,19.26h0a1,1,0,0,1-.89.54h0A1,1,0,0,1,36.67,19.69Z"/><path class="cls-4" d="M39.51,40.21a1,1,0,0,1-.71-.29,1.19,1.19,0,0,1-.22-.33,1.07,1.07,0,0,1,0-.76,1,1,0,0,1,.22-.33,1,1,0,0,1,1.41,0,.83.83,0,0,1,.22.33,1,1,0,0,1-.22,1.09A1,1,0,0,1,39.51,40.21Z"/><line class="cls-2" x1="5.93" y1="9.32" x2="26.8" y2="9.32"/><line class="cls-2" x1="5.93" y1="33.85" x2="26.8" y2="33.85"/><path class="cls-5" d="M72.68,72.25a1,1,0,0,1-.85-.48l-9.25-15-9.25,15A1,1,0,0,1,52,72.1a1,1,0,0,1-.33-1.38L61,55.46a3.53,3.53,0,1,1,3.13,0l9.38,15.26a1,1,0,0,1-.32,1.38A1,1,0,0,1,72.68,72.25ZM62.58,50.78a1.53,1.53,0,1,0,1.53,1.53A1.52,1.52,0,0,0,62.58,50.78Z"/><path class="cls-3" d="M58.57,47.55a6.36,6.36,0,0,1,8.47,0"/><path class="cls-3" d="M56.09,43.52a10.13,10.13,0,0,1,14.25.62"/><path class="cls-5" d="M62.58,73.51a1,1,0,0,1-1-1V65.58l-3.36-2.35a1,1,0,0,1-.25-1.4,1,1,0,0,1,1.4-.24l3.21,2.25,3.22-2.25a1,1,0,0,1,1.39.24,1,1,0,0,1-.25,1.4l-3.36,2.35v6.93A1,1,0,0,1,62.58,73.51Z"/></svg>