<svg id="Layer_1" data-name="Layer 1" xmlns="http://www.w3.org/2000/svg" viewBox="0 0 78 78"><defs><style>.cls-1,.cls-2,.cls-3,.cls-5{fill:none;stroke-width:2px;}.cls-1{stroke:#2d9bf3;}.cls-1,.cls-2,.cls-3{stroke-linecap:round;stroke-linejoin:round;}.cls-2{stroke:#2ae7d2;}.cls-3,.cls-5{stroke:#465589;}.cls-4{fill:#465589;}.cls-5{stroke-miterlimit:10;}</style></defs><title>1</title><rect class="cls-1" x="9.84" y="18.81" width="62.8" height="53.83"/><line class="cls-2" x1="39.26" y1="26.78" x2="61.14" y2="26.78"/><line class="cls-3" x1="39.26" y1="32.38" x2="48.81" y2="32.38"/><line class="cls-2" x1="54.94" y1="32.38" x2="62.79" y2="32.38"/><path class="cls-3" d="M39.26,38H61"/><path class="cls-3" d="M68.16,68.16H5.36V8.72A3.29,3.29,0,0,1,8.72,5.36H64.79a3.3,3.3,0,0,1,3.37,3.36V68.16ZM5.36,14.33h62.8"/><path class="cls-4" d="M11,9.84A1.12,1.12,0,1,1,9.84,8.72,1.12,1.12,0,0,1,11,9.84Z"/><path class="cls-4" d="M14.33,9.84a1.12,1.12,0,1,1-1.12-1.12,1.12,1.12,0,0,1,1.12,1.12Z"/><path class="cls-4" d="M17.69,9.84a1.12,1.12,0,1,1-1.12-1.12,1.12,1.12,0,0,1,1.12,1.12Z"/><line class="cls-2" x1="28.79" y1="61.94" x2="62.44" y2="61.94"/><line class="cls-2" x1="17.58" y1="56.33" x2="32.16" y2="56.33"/><line class="cls-2" x1="39.33" y1="56.33" x2="53.91" y2="56.33"/><circle class="cls-5" cx="23.47" cy="33.77" r="9.25"/><circle class="cls-4" cx="23.47" cy="30.13" r="2.2"/><path class="cls-4" d="M18.45,37.63h0a3.83,3.83,0,0,1,3.82-3.82h2.39a3.83,3.83,0,0,1,3.82,3.82h0"/></svg>