

<svg xmlns="http://www.w3.org/2000/svg" viewBox="0 0 740 138.1"><path d="M58.8804364,33.9409163 L62.5501533,33.9409163 L61.9276121,30.9995237 L61.9276121,13.5202137 L58.4217218,13.5202137 L58.4217218,21.4991637 C57.3732312,20.2482266 55.8987914,19.5044262 54.1949942,19.5044262 C50.689104,19.5044262 47.9695816,22.513437 47.9695816,26.8748123 C47.9695816,31.2699966 50.689104,34.2451983 54.1949942,34.2451983 C55.9315567,34.2451983 57.4387619,33.4675888 58.4872524,32.1490335 L58.8804364,33.9409163 L58.8804364,33.9409163 Z M128.211874,23.426283 C128.932711,23.426283 129.588018,23.6291377 130.177794,24.0686561 L131.848826,20.2144175 C131.062458,19.7072809 130.177794,19.5044262 129.29313,19.5044262 C127.720394,19.5044262 126.377016,20.2482266 125.557882,21.6344002 L125.197464,19.8425173 L121.593278,19.8425173 L122.183053,22.6148644 L122.183053,33.9747254 L125.688944,33.9747254 L125.688944,24.947693 C126.147658,24.0010379 127.032322,23.426283 128.211874,23.426283 L128.211874,23.426283 L128.211874,23.426283 L128.211874,23.426283 Z M138.467422,30.458578 C136.435972,30.458578 134.928767,29.0724044 134.928767,26.9086214 C134.928767,24.7110292 136.435972,23.3586648 138.467422,23.3586648 C140.531638,23.3586648 142.006078,24.7110292 142.006078,26.9086214 C142.006078,29.0385953 140.531638,30.458578 138.467422,30.458578 L138.467422,30.458578 Z M51.3771759,26.8748123 C51.3771759,24.6772201 52.8843811,23.3248557 54.9158315,23.3248557 C56.9800473,23.3248557 58.4544871,24.6772201 58.4544871,26.8748123 C58.4544871,29.0385953 56.9800473,30.4247688 54.9158315,30.4247688 C52.8843811,30.458578 51.3771759,29.0385953 51.3771759,26.8748123 Z M154.030954,30.458578 C151.999504,30.458578 150.492298,29.0724044 150.492298,26.9086214 C150.492298,24.7110292 151.999504,23.3586648 154.030954,23.3586648 C156.09517,23.3586648 157.56961,24.7110292 157.56961,26.9086214 C157.536844,29.0385953 156.062404,30.458578 154.030954,30.458578 Z M71.0691391,23.122001 C72.8712322,23.122001 74.0507841,24.0010379 74.443968,25.6238752 L67.6943101,25.6238752 C68.0547287,23.9672288 69.2670459,23.122001 71.0691391,23.122001 L71.0691391,23.122001 Z M112.975996,23.122001 C114.778089,23.122001 115.957641,24.0010379 116.350825,25.6238752 L109.601167,25.6238752 C110.027116,23.9672288 111.206668,23.122001 112.975996,23.122001 L112.975996,23.122001 Z M95.8724937,33.9409163 L101.50813,33.9409163 L105.177847,19.7748991 L101.344304,19.7748991 L98.6903121,31.2699966 L96.003555,19.8087082 L92.2355421,19.8087082 L95.8724937,33.9409163 L95.8724937,33.9409163 Z M86.862028,33.9409163 L90.3679183,33.9409163 L90.3679183,19.7748991 L86.862028,19.7748991 L86.862028,33.9409163 Z M71.5933843,34.2113892 C73.5593041,34.2113892 75.4596933,33.6366343 77.0651944,32.5885519 L75.7218159,29.4781138 C74.4767334,30.1881051 73.0350589,30.5600053 71.6261497,30.5600053 C69.7912912,30.5600053 68.5134433,29.8162049 67.9236674,28.4300313 L77.818797,28.4300313 C77.917093,27.8890856 77.9826236,27.415758 77.9826236,26.7733849 C77.9826236,22.3782006 75.033744,19.4706171 71.1346697,19.4706171 C67.1700648,19.4706171 64.2867158,22.4458188 64.2867158,26.8410032 C64.2539505,31.3376148 67.1372995,34.2113892 71.5933843,34.2113892 L71.5933843,34.2113892 Z M160.944439,26.8748123 C160.944439,22.4796279 157.995559,19.5044262 154.030954,19.5044262 C150.033584,19.5044262 147.117469,22.513437 147.117469,26.8748123 C147.117469,31.2361875 150.066349,34.2451983 154.030954,34.2451983 C157.995559,34.2451983 160.944439,31.2699966 160.944439,26.8748123 L160.944439,26.8748123 Z M113.467476,34.2451983 C115.433396,34.2451983 117.333785,33.7042525 118.939286,32.622361 L117.595907,29.5119229 C116.350825,30.2219142 114.90915,30.5938144 113.500241,30.5938144 C111.665383,30.5938144 110.387535,29.850014 109.797759,28.4638404 L119.692888,28.4638404 C119.791184,27.9228947 119.856715,27.4495671 119.856715,26.807194 C119.856715,22.4120097 116.907835,19.5044262 113.008761,19.5044262 C109.044156,19.5044262 106.160807,22.4796279 106.160807,26.8748123 C106.160807,31.405233 109.011391,34.2451983 113.467476,34.2451983 L113.467476,34.2451983 L113.467476,34.2451983 Z M138.467422,34.2451983 C142.464793,34.2451983 145.380907,31.2361875 145.380907,26.8748123 C145.380907,22.513437 142.432027,19.5044262 138.467422,19.5044262 C134.470052,19.5044262 131.553938,22.513437 131.553938,26.8748123 C131.553938,31.2361875 134.470052,34.2451983 138.467422,34.2451983 L138.467422,34.2451983 Z M80.2106661,33.9409163 L83.7165564,33.9409163 L83.7165564,13.5202137 L80.2106661,13.5202137 L80.2106661,33.9409163 L80.2106661,33.9409163 Z M88.6313558,17.8477798 C89.843673,17.8477798 90.8266329,16.8335065 90.8266329,15.5487603 C90.8266329,14.2640141 89.8764384,13.2497408 88.6313558,13.2497408 C87.3862733,13.2497408 86.4033134,14.2640141 86.4033134,15.5487603 C86.4033134,16.8335065 87.353508,17.8477798 88.6313558,17.8477798 L88.6313558,17.8477798 Z M28.3759144,0.638942654 L26.3772293,20.2482266 L22.969635,3.71557169 L12.2226068,6.0484003 L15.5974358,22.5810553 L0.132200142,25.9619663 L2.88448784,39.1475193 L30.1124769,45.1317318 L36.3378895,30.7628599 L39.2867692,1.82226151 L28.3759144,0.638942654 L28.3759144,0.638942654 L28.3759144,0.638942654 Z M19.7586327,29.1062135 C19.2016221,29.6471593 18.4807848,29.5795411 17.6616516,29.3090682 C16.8752836,29.0385953 16.5476304,28.0919402 16.809753,26.8748123 C17.0391103,25.9957754 18.0548355,25.860539 18.6118461,25.860539 C18.8084381,25.860539 19.0050301,25.8943481 19.2016221,25.9957754 C19.5620407,26.1648209 20.184582,26.5367212 20.3156433,27.0776669 C20.5122353,27.8890856 20.3156433,28.5652678 19.7586327,29.1062135 L19.7586327,29.1062135 L19.7586327,29.1062135 L19.7586327,29.1062135 Z M27.6550771,29.9852504 C27.2291279,30.7290508 26.1806373,30.8304782 25.0993814,30.2895324 C24.3785442,29.9176322 24.3785442,29.0385953 24.4768402,28.4638404 C24.5096055,28.1595585 24.6406668,27.8552765 24.8372588,27.6186127 C25.0993814,27.2805216 25.5253307,26.8410032 25.9840453,26.8410032 C26.8031786,26.807194 27.4584852,27.1790943 27.8516691,27.8552765 C28.2448531,28.5314587 28.0482611,29.2752591 27.6550771,29.9852504 L27.6550771,29.9852504 L27.6550771,29.9852504 Z" id="Shape" fill="#9AA8BD" fill-rule="nonzero"/></svg>