

<svg xmlns="http://www.w3.org/2000/svg" viewBox="0 0 740 138.1"><path d="M53.687248,10.7983398 C52.8321572,10.7983398 52.2157618,11.0908203 51.5909418,11.388916 L51.5909418,18.1318359 C52.1895521,18.1914062 52.5326181,18.1914062 53.1008065,18.1914062 C55.1531178,18.1914062 55.4344038,17.2109374 55.4344038,15.8417968 L55.4344038,12.6210937 C55.4344038,11.6103515 55.1128672,10.7983398 53.687248,10.7983398 Z M40.0579817,10.4304199 C38.6342346,10.4304199 38.3089537,11.2460937 38.3089537,12.2558593 L38.3089537,12.8232421 L41.8049035,12.8232421 L41.8049035,12.2558593 C41.8049035,11.2460937 41.4800907,10.4304199 40.0579817,10.4304199 Z M13.655476,17.4492187 C13.655476,18.2480468 14.0167951,18.6630859 14.8143181,18.6630859 C15.6698769,18.6630859 16.1762853,18.3720703 16.8006372,18.0732422 L16.8006372,16.4736328 L14.9299215,16.4736328 C14.0446429,16.4736328 13.655476,16.6455078 13.655476,17.4492187 Z M66.9451325,10.7983398 C65.5190453,10.7983398 65.0248056,11.6103515 65.0248056,12.6210937 L65.0248056,16.3105468 C65.0248056,17.3242187 65.5190453,18.1386718 66.9451325,18.1386718 C68.3674755,18.1386718 68.8654594,17.3242187 68.8654594,16.3105468 L68.8654594,12.6210937 C68.8654594,11.6103515 68.3674755,10.7983398 66.9451325,10.7983398 Z M6.66615064,21.5859375 L2.47377232,21.5859375 L2.47377232,10.9987793 L0.378636251,10.9987793 L0.378636251,7.35058595 L2.47377232,7.35058595 L2.47377232,5.16015625 C2.47377232,2.1838379 3.65625002,0.4140625 7.01670507,0.4140625 L9.81458812,0.4140625 L9.81458812,4.0629883 L8.06579419,4.0629883 C6.75741644,4.0629883 6.67129893,4.5727539 6.67129893,5.5244141 L6.66615059,7.350586 L9.83424537,7.350586 L9.46356564,10.9987794 L6.66615059,10.9987794 L6.66615059,21.5859375 L6.66615064,21.5859375 Z M20.9946536,21.6132812 L17.500576,21.6132812 L17.3491683,20.6914062 C15.7536542,21.6132812 14.3296731,21.7626953 13.390337,21.7626953 C10.827873,21.7626953 9.46356564,19.9765625 9.46356564,17.5068359 C9.46356564,14.5927734 11.0551015,13.5527343 13.9025957,13.5527343 L16.8006372,13.5527343 L16.8006372,12.9228515 C16.8006372,11.435791 16.6372948,10.9987793 14.4448084,10.9987793 L10.8599331,10.9987793 L11.2104875,7.35058595 L15.1290683,7.35058595 C19.9399481,7.35058595 20.9946536,8.93603515 20.9946536,12.9521484 L20.9946536,21.6132812 L20.9946536,21.6132812 Z M32.8769981,11.2663574 C30.702531,10.8776855 30.078179,10.7922363 29.0318981,10.7922363 C27.1525238,10.7922363 26.5845694,11.2248535 26.5845694,12.8896484 L26.5845694,16.0390624 C26.5845694,17.7041015 27.1525238,18.1386718 29.0318981,18.1386718 C30.078179,18.1386718 30.702531,18.0517578 32.8769981,17.6611328 L32.8769981,21.2197265 C30.9723502,21.665039 29.7316028,21.7822265 28.6827477,21.7822265 C24.1814697,21.7822265 22.3921911,19.3125 22.3921911,15.7451171 L22.3921911,13.1894531 C22.3921911,9.61889645 24.1814696,7.1450195 28.6827477,7.1450195 C29.7316029,7.1450195 30.9723503,7.2626953 32.8769981,7.7099609 L32.8769981,11.2663574 L32.8769981,11.2663574 Z M45.9972818,15.7451172 L38.3089538,15.7451172 L38.3089538,16.0390625 C38.3089538,17.7041015 38.8773762,18.1386719 40.7562824,18.1386719 C42.4454025,18.1386719 43.4762385,18.0517578 45.6467274,17.6611328 L45.6467274,21.2197266 C43.5534634,21.6650391 42.4627196,21.7822266 40.4087702,21.7822266 C35.9072581,21.7822266 34.1170435,19.3125 34.1170435,15.7451172 L34.1170435,12.8232422 C34.1170435,9.7019043 35.4453125,7.14501955 40.0579817,7.14501955 C44.6706509,7.14501955 45.9972818,9.67211915 45.9972818,12.8232422 L45.9972818,15.7451172 L45.9972818,15.7451172 Z M59.6260801,15.8125 C59.6260801,19.2607422 58.6815956,21.7753906 52.9589934,21.7753906 C50.8926412,21.7753906 49.6804436,21.5859375 47.3997336,21.2197265 L47.3997336,1.5095215 L51.5909418,0.77978515 L51.5909418,7.6743164 C52.4965798,7.3232422 53.6689948,7.1450195 54.7361031,7.1450195 C58.9277794,7.1450195 59.6260801,9.1054687 59.6260801,12.2558593 L59.6260801,15.8125 Z M73.0613479,15.8876953 C73.0613479,18.8623047 71.8842526,21.7470703 66.9591734,21.7470703 C62.031754,21.7470703 60.8326613,18.8623047 60.8326613,15.8876953 L60.8326613,13.015625 C60.8326613,10.0395508 62.031754,7.1542969 66.9591734,7.1542969 C71.8842526,7.1542969 73.0613479,10.0395508 73.0613479,13.015625 L73.0613479,15.8876953 Z M86.4872552,15.8876953 C86.4872552,18.8623047 85.3087558,21.7470703 80.3846126,21.7470703 C75.4571933,21.7470703 74.2581006,18.8623047 74.2581006,15.8876953 L74.2581006,13.015625 C74.2581006,10.0395508 75.4571933,7.1542969 80.3846126,7.1542969 C85.3087558,7.1542969 86.4872552,10.0395508 86.4872552,13.015625 L86.4872552,15.8876953 Z M100.265589,21.5859375 L95.7224222,21.5859375 L91.8803643,14.8945312 L91.8803643,21.5859375 L87.687752,21.5859375 L87.687752,1.5095215 L91.8803643,0.77978515 L91.8803643,13.7041015 L95.7224222,7.35058595 L100.265589,7.35058595 L96.0711046,14.2841797 L100.265589,21.5859375 Z M80.3705717,10.7983398 C78.9468246,10.7983398 78.452585,11.6103515 78.452585,12.6210937 L78.452585,16.3105468 C78.452585,17.3242187 78.9468246,18.1386718 80.3705717,18.1386718 C81.7924467,18.1386718 82.295579,17.3242187 82.295579,16.3105468 L82.295579,12.6210937 C82.2955789,11.6103515 81.7924467,10.7983398 80.3705717,10.7983398 Z" id="Shape"></path></svg>