

<svg xmlns="http://www.w3.org/2000/svg" viewBox="0 0 740 138.1"><path d="M3.55271368e-15,1.77635684e-15 L3.55271368e-15,0.0029269391 L53,0.0029269391 L26.7836513,26 L3.55271368e-15,26 L3.55271368e-15,1.77635684e-15 Z M31.3911189,13.0296307 L30.2648529,13.0296307 L30.2648529,9.16909981 L31.3911189,9.16909981 C32.894736,9.16909981 34.0916105,9.6334267 34.0916105,11.0746843 C34.0916105,12.563134 32.894736,13.0296307 31.3911189,13.0296307 Z M19.2690018,15.7895549 C18.6728795,15.7895549 18.1137979,15.6875766 17.6305337,15.5172511 L19.2527965,10.7220997 L19.2875221,10.7220997 L20.8762168,15.5302696 C20.3975827,15.6908312 19.8529701,15.7895549 19.2707381,15.7895549 L19.2690018,15.7895549 Z M31.092479,6.03272361 L25.9779815,6.03272361 L25.9779815,17.4309722 L21.5099584,6.03272361 L17.081291,6.03272361 L13.2637935,15.5622734 C12.8603982,13.1603582 10.2056285,12.3288008 8.11862185,11.7087943 C6.7429106,11.2938292 5.27864914,10.684129 5.29196061,10.0087938 C5.3035358,9.45659192 6.07849473,8.9445305 7.60699848,9.02101425 C8.63719034,9.06983367 9.5458427,9.14794473 11.349836,9.96539872 L13.1266275,7.06444058 C11.4806356,6.27627825 9.19974454,5.78157484 7.33382401,5.77777778 L7.32224883,5.77777778 C5.14553446,5.77777778 3.33170229,6.4428067 2.20659388,7.53147966 C1.42468984,8.29306253 1.00161667,9.25643232 0.982517603,10.3288321 C0.95357963,11.7977541 1.53060282,12.8403198 2.73847383,13.674047 C3.76056305,14.3759617 5.06450814,14.8278125 6.21623948,15.1662937 C7.63709398,15.5769193 8.79692795,15.9354707 8.78361648,16.6997658 C8.77204129,16.9780365 8.66149824,17.2389491 8.44677847,17.4450756 C8.09315644,17.7895236 7.5497013,17.9169966 6.79789275,17.9327273 C5.34867904,17.9598492 4.2739227,17.7482984 2.56195219,16.8001168 L0.982517603,19.7417578 C2.68927928,20.6525111 4.70972858,21.1851852 6.77184857,21.1851852 L7.03865669,21.1851852 C8.83281104,21.1526389 10.2820247,20.6725813 11.4401224,19.8003411 L11.6276405,19.6468312 L11.1160171,20.9356637 L15.7605619,20.9356637 L16.5407296,18.7122106 C17.3567805,18.9709535 18.2862682,19.1163269 19.2701593,19.1163269 C20.2303213,19.1163269 21.1360798,18.9807174 21.9376617,18.7333657 L22.687734,20.9356637 L30.2660105,20.9356637 L30.2660105,16.3303656 L31.9195263,16.3303656 C35.9129666,16.3303656 38.2777778,14.4253235 38.2777778,11.2281943 C38.2777778,7.66980133 35.9812602,6.03760555 31.0919002,6.03760555 L31.092479,6.03272361 Z" id="Combined-Shape" fill="#9AA8BD" fill-rule="nonzero"></path></svg>