

<svg xmlns="http://www.w3.org/2000/svg" viewBox="0 0 740 138.1"><path d="M42.5660377,8.65033267 L56.1271793,8.65033267 C56.5958475,9.40505116 56.4597825,10.0968764 56.2934809,10.8987648 C54.645583,11.4333571 52.8918568,10.8673182 50.9718289,11.3075707 L50.9718289,26.7635764 C49.9437825,27.0780425 49.1576294,26.9837027 48.0993463,26.8736395 L48.0993463,11.3547406 C46.0886085,10.961658 44.3348823,11.1503377 42.5660377,11.1817843 L42.5660377,8.65033267 Z M72.2584368,7.2195122 C72.5910401,11.1503377 72.3491468,15.0811631 72.4096201,19.0277119 C72.4549751,21.5906101 72.4096201,24.137785 72.4096201,26.6692366 C71.4269287,27.1409357 70.5803023,26.9837027 69.4917826,26.8736395 L69.4917826,7.2195122 L72.2584368,7.2195122 L72.2584368,7.2195122 Z M125.459838,26.7635764 C124.44691,27.0623192 123.660757,27.0151493 122.708302,26.8264696 L122.708302,13.5402795 C123.479337,13.1786436 124.220135,13.3201533 124.99117,13.3987698 C125.157472,13.7604058 125.323773,14.1220417 125.53543,14.5780175 C128.120664,12.5968814 130.569834,12.2195222 132.837583,15.128333 C133.291133,14.7038039 133.714446,14.2321048 134.198233,13.8704689 C136.617165,12.0780125 139.822251,13.2415368 140.714233,16.1975176 C141.092191,17.4239351 140.986363,18.6817993 140.986363,19.9396634 C141.001481,22.2038189 140.986363,24.4679744 140.986363,26.7635764 C140.01879,27.0937658 139.187281,27.0151493 138.280182,26.8736395 C137.856868,25.0654598 138.144117,23.2730034 138.068525,21.5119936 C138.02317,20.3170227 138.098762,19.1220517 137.977815,17.9270808 C137.826632,16.3075807 137.010242,15.5371389 135.679829,15.5843088 C134.349416,15.6314787 133.276015,16.63777 133.23066,18.0843138 C133.155068,20.3012994 133.200423,22.5025616 133.200423,24.7195472 L133.200423,26.63779 C132.247968,27.1881056 131.401342,26.9679794 130.50936,26.9208094 C130.05581,25.6314987 130.343059,24.3107413 130.297704,23.0214306 C130.23723,21.2918674 130.343059,19.5465809 130.206994,17.8170177 C130.086047,16.2918574 129.133592,15.5214156 127.788061,15.5843088 C126.321583,15.6629253 125.490075,16.5277069 125.474957,18.0843138 C125.44472,20.9459547 125.459838,23.8075957 125.459838,26.7635764 L125.459838,26.7635764 Z M95.8127942,14.6251874 C95.9942141,14.1534883 96.1302791,13.823299 96.2663441,13.4773863 C96.9315506,13.2258135 97.6118754,13.2887067 98.2619636,13.4144931 C98.6248035,13.7604058 98.5794485,14.2006582 98.5794485,14.6094641 C98.5794485,18.8547556 98.6096851,23.1000471 98.5794485,27.3453386 C98.5643302,29.8453436 97.2792721,31.5906301 94.9661677,32.1723923 C92.8647199,32.7069845 90.7632721,32.6126447 88.7978893,31.4962903 C88.555996,30.7101252 88.8130076,30.0654698 89.0851376,29.295028 C91.0656387,29.5308776 93.1519682,30.6629553 94.9812861,29.0120086 C95.7674392,28.30446 95.8127942,27.2667221 95.5709009,26.2132609 C94.8603394,26.2132609 94.4672629,26.7478531 93.9381213,26.9365327 C91.4587153,27.8642076 88.8583626,26.7164065 87.8151979,24.1220617 C87.0290448,22.1880956 87.0895181,20.1755129 87.361648,18.1314837 C87.8454345,14.2321048 91.5040703,11.0717212 95.8127942,14.6251874 L95.8127942,14.6251874 Z M95.6767292,20.2698528 C95.6767292,19.5465809 95.6616109,18.8390323 95.6767292,18.1157604 C95.7220842,16.7478331 94.9964044,16.0088379 93.8171747,15.6943719 C92.5774717,15.3641826 91.4738336,15.7100952 90.8691004,16.9207895 C89.8712907,18.9333721 89.8561724,21.0717411 90.6272072,23.1629403 C91.0958754,24.4208044 92.3204601,24.9553967 93.6055181,24.6881006 C94.9510494,24.4208044 95.6313742,23.5717461 95.6616109,22.0623092 C95.6918475,21.4648237 95.6767292,20.8673382 95.6767292,20.2698528 L95.6767292,20.2698528 Z M109.615829,17.0622992 C109.494882,16.4176438 109.630947,15.9773913 109.857722,15.5528622 C110.87065,13.6031728 113.622186,12.6126047 116.252776,13.2415368 C118.611235,13.8075757 119.775346,15.2226729 119.866056,17.7698478 C119.987003,20.7415518 119.684636,23.7289792 120.123068,26.7478531 C119.29156,27.156659 118.444933,26.9208094 117.689017,26.9365327 C116.993574,26.7006832 117.250585,25.9302414 116.827272,25.6157754 C116.645852,25.489989 116.494669,25.6000521 116.373722,25.7258385 C115.648042,26.4491104 114.816534,26.9365327 113.833843,27.156659 C111.581212,27.6598046 109.464646,26.4176638 108.965741,24.295018 C108.421481,21.9836927 109.494882,20.0968964 111.77775,19.3107313 C112.836033,18.9490954 113.924553,18.980542 115.013073,18.9019255 C115.572451,18.8704789 116.162066,18.980542 116.736562,18.6346294 C116.993574,17.3767652 116.902864,16.2446875 115.587569,15.647202 C114.272274,15.0497165 113.168636,15.5371389 112.14059,17.1880856 C111.732395,17.2038089 111.278845,17.2509788 110.825295,17.2509788 C110.4171,17.2824254 109.993787,17.3453186 109.615829,17.0622992 L109.615829,17.0622992 Z M116.645852,21.0874645 C114.997954,20.7729984 113.894316,20.7887217 113.153518,21.166081 C112.246418,21.6220567 111.68704,22.3296053 111.898697,23.4145131 C112.125472,24.5780375 113.017453,24.813887 114.000145,24.7509938 C116.086474,24.6094841 117.054047,23.2572801 116.645852,21.0874645 Z M67.2089148,20.9459547 L59.695105,20.9459547 C59.2415552,24.5623142 61.7814345,25.6157754 66.2262234,23.8547656 C66.8007199,24.2478481 66.9065482,24.8925035 67.1333232,25.4585424 C64.0038289,28.6818193 58.2588637,27.471125 56.8075041,23.2887267 C56.0818243,21.1975276 56.112061,19.0434352 56.8377408,16.9522361 C57.8053139,14.1534883 60.3603115,12.628328 63.1269658,13.1157504 C65.8482651,13.5874495 67.3600981,15.5056923 67.4810447,18.6817993 C67.5112814,19.3421779 67.586873,20.0025566 67.2089148,20.9459547 L67.2089148,20.9459547 Z M64.4573788,18.6189061 C64.4271422,16.480537 63.7014624,15.5371389 62.2198661,15.5214156 C60.6929148,15.5056923 59.74046,16.6692166 59.7253417,18.6189061 L64.4573788,18.6189061 Z M85.8044601,20.9145081 L78.0034021,20.9145081 C77.5952072,22.3453286 78.048757,23.3673432 78.9558568,24.0591685 C80.8154113,25.4742657 82.6749659,24.656654 84.5042837,23.823319 C85.1392536,24.1849549 85.2148452,24.8610569 85.4718568,25.4113725 C82.4633092,28.7604358 76.5369241,27.4554017 75.1006828,23.1786636 C74.4959496,21.3862072 74.5110679,19.5308576 74.9646178,17.6912312 C75.7658893,14.5151243 78.320887,12.6597746 81.2387246,13.0685805 C84.1716805,13.4773863 85.7591051,15.5371389 85.8195784,18.9962653 C85.8044601,19.5308576 85.8044601,20.0654498 85.8044601,20.9145081 L85.8044601,20.9145081 Z M82.7959125,18.5874595 C82.6749659,16.4648137 82.039996,15.6314787 80.6339914,15.5528622 C79.1221584,15.4742457 78.184822,16.5119836 77.9429287,18.6189061 C79.5303533,18.7446925 81.1026596,18.7761391 82.7959125,18.5874595 L82.7959125,18.5874595 Z M107.983049,15.9459447 C107.363198,15.9931146 106.970121,15.9931146 106.577045,16.0402845 C104.959384,16.2761341 104.400005,16.9050662 104.384887,18.6346294 C104.369769,21.3075907 104.384887,23.980552 104.384887,26.6849599 C103.477787,27.156659 102.646279,26.9679794 101.633351,26.8893628 L101.633351,13.5402795 C102.343913,13.1786436 103.084711,13.3987698 103.855745,13.3201533 C104.067402,13.7761291 104.26394,14.1849349 104.505834,14.656634 C105.53388,13.7289592 106.501453,12.7383912 108.043523,13.1629203 C108.391244,14.1220417 108.103996,14.9553767 107.983049,15.9459447 Z" id="Shape" fill="#9AA8BD" fill-rule="nonzero"></path></svg>