

<svg xmlns="http://www.w3.org/2000/svg" viewBox="0 0 740 138.1"><path d="M59.6444589,22.2869832 C59.4183694,22.3223264 56.7577443,22.3248801 56.5208278,22.2929589 C56.5146483,22.2505165 56.5046895,22.2043968 56.5018806,22.1578684 C56.4984078,22.1008189 56.5008082,22.043514 56.5008082,21.9863113 C56.5008082,16.913704 56.5008082,11.8410967 56.5008082,6.76843832 L56.5008082,6.48824698 C56.5835936,6.40984856 56.6691369,6.4344151 56.7472238,6.43421081 C57.3924498,6.43221892 58.0377268,6.43308718 58.6830038,6.43308718 C58.9198692,6.43308718 59.1567347,6.43201463 59.3936512,6.43385329 C59.457183,6.43436403 59.5206638,6.4438127 59.5897623,6.44963512 C59.6328659,6.66291967 59.606871,6.86680662 59.6114673,7.06895706 C59.6161147,7.27304831 59.6118248,7.47734385 59.612693,7.68153725 C59.6135612,7.88261514 59.6084541,8.08399947 59.6190258,8.34161615 C59.6947124,8.24830416 59.7359264,8.20341022 59.7705522,8.15391962 C60.0537387,7.74864834 60.3901407,7.39537027 60.7924238,7.10675174 C61.3611971,6.69867139 61.9964132,6.4608203 62.6878581,6.36240092 C62.9478074,6.32537235 63.2079611,6.31485113 63.4694936,6.3153108 C63.7390442,6.31582154 64.0085949,6.31480006 64.2780944,6.31592369 C64.3418305,6.31623013 64.4054645,6.32246114 64.4554626,6.32521913 C64.4742055,6.34416754 64.4812022,6.34912171 64.4853389,6.35596561 C64.4892713,6.36255414 64.4923356,6.37098133 64.4923356,6.37859134 C64.4951445,7.26063736 64.4978001,8.14263229 64.4999962,9.02462723 C64.5000983,9.07355602 64.4981576,9.12253587 64.4943273,9.17126036 C64.4931016,9.18627608 64.482479,9.2005257 64.4748184,9.21840156 C64.4026045,9.26600242 64.3186955,9.24552179 64.2392297,9.24603253 C63.8798459,9.24827978 63.5204621,9.24807548 63.1610272,9.24690079 C62.7737588,9.24562394 62.3959896,9.30379709 62.030222,9.43030711 C61.2223362,9.70973234 60.6195499,10.2350783 60.200822,10.9749346 C59.923713,11.4644778 59.7674369,11.9946759 59.6931292,12.5502065 C59.6540602,12.8420938 59.6433864,13.1354622 59.6434886,13.4301074 C59.6451228,16.2808985 59.6444589,19.1317407 59.6444589,21.9825318 L59.6444589,22.2869832 Z" id="Fill-9" fill="#9AA8BD" fill-rule="nonzero"></path><path d="M51.3210934,12.2715274 C51.3127686,12.203935 51.3135808,12.1455787 51.2976927,12.0925753 C51.2255111,11.8525381 51.1610959,11.6088274 51.0714527,11.3757173 C50.1945122,9.09531115 48.0782511,7.88468176 45.9272698,8.17730257 C45.0877906,8.29149605 44.3277518,8.60447857 43.6547675,9.13393542 C42.6878285,9.89461308 42.0827111,10.9038295 41.7684521,12.1085288 C41.7562695,12.1550774 41.7499752,12.2034102 41.7422088,12.244396 C41.7668785,12.2632358 41.7795179,12.2812884 41.7921573,12.2813409 C44.9253566,12.2856967 48.0586067,12.2887929 51.1918061,12.291102 C51.2300796,12.2911544 51.2684039,12.279819 51.3210934,12.2715274 M51.4462183,17.0946279 C52.1755469,17.6524232 52.8932006,18.2010347 53.6101944,18.7504859 C53.6350163,18.7695357 53.6541023,18.7966147 53.6828328,18.8273671 C53.6528333,18.8737582 53.6291281,18.9162134 53.600093,18.9544179 C52.3032606,20.6587662 50.6401397,21.7543624 48.568751,22.1452757 C46.6618267,22.5052266 44.807592,22.3076446 43.0598023,21.4182893 C40.7218696,20.2286514 39.2684915,18.2970706 38.6921046,15.6667895 C38.531498,14.933873 38.4777933,14.1896736 38.5080466,13.4400165 C38.6372324,10.2407096 40.4313666,7.47498113 43.0670103,6.15063056 C43.9674022,5.69821234 44.9170827,5.43424486 45.9155948,5.34797 C47.182986,5.23849959 48.4143879,5.4005011 49.5948769,5.88855231 C51.6066219,6.72028603 53.0077165,8.20018325 53.8463328,10.255771 C54.1701348,11.0494577 54.3595227,11.8800369 54.4488106,12.7370128 C54.5186064,13.4072173 54.4961195,14.0786289 54.4979469,14.749883 C54.4979976,14.7731835 54.4862719,14.7965364 54.4760183,14.8351082 C54.4308921,14.8401462 54.3846492,14.8484378 54.338254,14.8499072 C54.2570877,14.8524787 54.1758707,14.8510093 54.0946537,14.8510093 C50.0664939,14.8510093 46.0382833,14.8509568 42.0101234,14.8511667 C41.9056073,14.8511667 41.8010912,14.8534758 41.6894178,14.8547877 C41.6857123,14.9049573 41.6759662,14.9385961 41.681956,14.9688763 C42.0060625,16.5992297 42.8293998,17.8751425 44.2153678,18.7395704 C44.9886551,19.2219014 45.8347839,19.4606792 46.7388813,19.4838747 C47.8104888,19.5112686 48.8188486,19.2813072 49.7446208,18.7085555 C50.3440022,18.3377416 50.8488166,17.8561452 51.2845965,17.294414 C51.3341896,17.2304426 51.3863208,17.1685178 51.4462183,17.0946279" id="Fill-7" fill="#9AA8BD" fill-rule="nonzero"></path><path d="M29.143232,19.5154685 C30.1613112,19.5249043 31.108961,19.2451612 31.9029658,18.7897713 C33.9891876,17.5931428 35.0719215,15.2005419 34.5139526,12.8260052 C33.8119802,9.83869788 30.6848903,7.92525293 27.5151097,8.8780144 C24.8416853,9.68151898 23.1707176,12.3454364 23.7384826,15.1560373 C24.2601541,17.7385144 26.5535905,19.5228355 29.143232,19.5154685 M20.5167824,0.381321736 C20.7486936,0.351197883 23.4503723,0.350794213 23.6714047,0.378496048 C23.6781073,0.42950981 23.68878,0.483450177 23.6915126,0.537794213 C23.6951733,0.610303388 23.6926984,0.683064855 23.6926984,0.755725406 C23.6926984,3.11265201 23.6926469,5.46957862 23.6929047,7.82650522 C23.6929047,7.92207403 23.6961529,8.0176933 23.6977512,8.10811531 C23.7887008,8.13485843 23.8168519,8.07254192 23.8549538,8.03681715 C24.1534275,7.75712449 24.4706685,7.50003733 24.808997,7.2679777 C25.8258387,6.57058779 26.9479634,6.11938596 28.1757836,5.94878504 C32.4806301,5.35059697 36.3885258,7.9224777 37.4998747,11.8561382 C37.752461,12.7501153 37.8428435,13.6601887 37.7885006,14.5878217 C37.6267608,17.3467529 36.012714,19.9052116 33.4317344,21.2685557 C32.5379119,21.7407483 31.5869107,22.0428447 30.5794011,22.1771658 C28.6364095,22.4361704 26.8226757,22.0834135 25.1447476,21.0851382 C24.6923711,20.8160419 24.2757764,20.4995144 23.8901169,20.1442346 C23.8320102,20.0906979 23.7706553,20.0405419 23.7162608,19.9936658 C23.693214,20.004363 23.6841912,20.0063814 23.6788291,20.0117805 C23.6738279,20.0168263 23.6711469,20.0253538 23.6703219,20.0326704 C23.6674862,20.0566887 23.6641865,20.0807575 23.6641349,20.1048263 C23.662485,20.6697621 23.6612476,21.2347483 23.6597524,21.7997346 C23.6597524,21.8077071 23.6585665,21.8159823 23.6561433,21.8236016 C23.6538231,21.8309685 23.6491829,21.8375786 23.6371697,21.8605878 C23.566792,21.9029227 23.4742956,21.884152 23.3870582,21.8843538 C22.628268,21.8859685 21.8694778,21.8853126 21.1107392,21.8853126 C20.9704994,21.8853126 20.8302596,21.8864227 20.6900713,21.8844043 C20.6416577,21.8837483 20.5933471,21.8751199 20.5353951,21.8691153 C20.5273004,21.8183538 20.5158028,21.772386 20.5134826,21.7259135 C20.5098219,21.6534548 20.5122452,21.5806933 20.5122452,21.5080327 C20.5121936,14.5825236 20.5121936,7.65706486 20.5123999,0.731555681 C20.5123999,0.619739167 20.5151325,0.507973112 20.5167824,0.381321736" id="Fill-4" fill="#9AA8BD" fill-rule="nonzero"></path><path d="M0.500164988,0.38165981 C0.737696163,0.351889167 3.55692878,0.350627699 3.78193117,0.377168984 C3.78951031,0.419857057 3.80245156,0.465522195 3.80472014,0.511742378 C3.80869017,0.592274488 3.80616379,0.673109351 3.80616379,0.753893755 C3.80621535,5.02436623 3.80724652,9.29488917 3.80508105,13.5653112 C3.8047717,14.1817149 3.86153789,14.790146 4.01822494,15.3879305 C4.18981247,16.0425818 4.45910384,16.6547974 4.85579688,17.210146 C5.52178129,18.1424213 6.40817938,18.7852149 7.51988921,19.1174855 C8.71625851,19.475036 9.91463861,19.4653479 11.0907969,19.0431598 C12.5242849,18.5285818 13.5128724,17.5466048 14.112346,16.181747 C14.3582297,15.6218571 14.5093484,15.0359809 14.5648772,14.4290635 C14.5912753,14.1401369 14.6087022,13.8492928 14.6089084,13.5593571 C14.611641,9.27268733 14.6107129,4.98606807 14.6110223,0.6994488 C14.6110739,0.596109351 14.6149408,0.492719443 14.6165906,0.409714855 C14.6394312,0.384334121 14.6439168,0.376664397 14.6506194,0.372627699 C14.6573221,0.368641461 14.6662933,0.366824947 14.6743365,0.366572654 C14.7648221,0.363494672 14.8553077,0.3584488 14.9457933,0.358549718 C15.9108185,0.359609351 16.8757921,0.361375406 17.8408173,0.363797424 C17.8557693,0.363797424 17.8706698,0.374646048 17.8996458,0.385898342 C17.9050595,0.424751553 17.9147525,0.470719443 17.9171242,0.516939626 C17.9203724,0.581375406 17.918207,0.646063479 17.918207,0.710650635 C17.918207,7.65321486 17.9182585,14.5957791 17.9179492,21.5383938 C17.9179492,21.641935 17.9142885,21.7455268 17.912123,21.8615818 C17.8610283,21.8707653 17.8227201,21.8835818 17.7843604,21.8836323 C16.7780367,21.8844396 15.7717129,21.884036 14.7653376,21.8833295 C14.7408988,21.8832791 14.7164084,21.8775772 14.6938257,21.8747011 C14.6336566,21.8231827 14.6501554,21.755013 14.6500007,21.6928983 C14.6486602,21.2004717 14.6491758,20.7079947 14.6491758,20.2155681 L14.6491758,19.9856782 C14.5867897,19.9469763 14.5594635,19.9832561 14.5305391,20.0090405 C14.365912,20.1557745 14.2073173,20.3094717 14.0368125,20.4492928 C12.9571206,21.334591 11.7212573,21.8951369 10.3337597,22.1286094 C8.59849832,22.4205635 6.9107741,22.2499121 5.29806787,21.5527745 C3.22721055,20.6576873 1.83130887,19.1337837 1.052153,17.0626552 C0.771518705,16.316724 0.603230935,15.5441506 0.54512422,14.7508892 C0.519808873,14.4050956 0.502278897,14.0578387 0.502021103,13.7112882 C0.499185372,9.37617816 0.500164988,5.04111853 0.500164988,0.706058892 L0.500164988,0.38165981 Z" id="Fill-1" fill="#9AA8BD" fill-rule="nonzero"></path></svg>