

<svg xmlns="http://www.w3.org/2000/svg" viewBox="0 0 740 138.1"><path d="M157.270523,22.5401275 C157.170462,23.0391791 156.998124,23.4741783 156.755011,23.8484671 C156.510585,24.2225701 156.191253,24.5268654 155.796453,24.7580109 C155.402592,24.9910131 154.911111,25.108164 154.323135,25.108164 C153.75168,25.108164 153.264516,24.9910131 152.861832,24.7580109 C152.458021,24.5268654 152.13531,24.2225701 151.891071,23.8484671 C151.64871,23.4741783 151.471491,23.0391791 151.361856,22.5401275 C151.252784,22.0421898 151.198529,21.5347835 151.198529,21.0212504 C151.198529,20.4876662 151.249968,19.9728336 151.350216,19.4754529 C151.450841,18.9767725 151.623366,18.5367605 151.866666,18.1528175 C152.109779,17.7714737 152.429486,17.4601234 152.824098,17.2196949 C153.217771,16.9787094 153.709253,16.8569171 154.297979,16.8569171 C154.869059,16.8569171 155.351342,16.9787094 155.745578,17.2196949 C156.141504,17.4601234 156.463839,17.7748156 156.716339,18.1658136 C156.969213,18.556626 157.149623,19.0016509 157.258508,19.4995885 C157.368706,19.9982689 157.422397,20.5054895 157.422397,21.0212504 C157.422397,21.5347835 157.371334,22.0421898 157.270523,22.5401275 L157.270523,22.5401275 Z M160.646877,18.4897888 C160.411461,17.651538 160.050829,16.915771 159.563102,16.2841588 C159.075938,15.6531035 158.463933,15.1458829 157.724833,14.7641678 C156.984983,14.3813388 156.102456,14.1912238 155.078004,14.1912238 C154.272635,14.1912238 153.53316,14.3481058 152.861832,14.6640975 C152.189752,14.9800893 151.635193,15.4871243 151.198529,16.1850168 L151.149531,16.1850168 L151.149531,14.539149 L147.747082,14.539149 L147.747082,31.9372623 L151.324309,31.9372623 L151.324309,25.8309348 L151.374997,25.8309348 C151.811661,26.4629184 152.371289,26.9398766 153.05069,27.2627377 C153.730654,27.5870841 154.474635,27.7500928 155.28113,27.7500928 C156.237623,27.7500928 157.073029,27.5657334 157.788099,27.2010989 C158.500916,26.8360931 159.098278,26.3452105 159.576055,25.7301219 C160.055897,25.1150334 160.411461,24.4097145 160.646877,23.612123 C160.883231,22.8141603 161,21.9837072 161,21.1196498 C161,20.2058357 160.883231,19.3297105 160.646877,18.4897888 L160.646877,18.4897888 Z M143.011738,22.5401275 C142.9098,23.0391791 142.737275,23.4741783 142.49435,23.8484671 C142.250862,24.2225701 141.93153,24.5268654 141.535604,24.7580109 C141.142119,24.9910131 140.650074,25.108164 140.062662,25.108164 C139.490831,25.108164 139.005544,24.9910131 138.602297,24.7580109 C138.198674,24.5268654 137.875588,24.2225701 137.631724,23.8484671 C137.388236,23.4741783 137.211956,23.0391791 137.102508,22.5401275 C136.992873,22.0421898 136.939557,21.5347835 136.939557,21.0212504 C136.939557,20.4876662 136.988555,19.9728336 137.08918,19.4754529 C137.191306,18.9767725 137.362329,18.5367605 137.606756,18.1528175 C137.848742,17.7714737 138.169012,17.4601234 138.564751,17.2196949 C138.958799,16.9787094 139.448779,16.8569171 140.037693,16.8569171 C140.608022,16.8569171 141.092745,16.9787094 141.486231,17.2196949 C141.880843,17.4601234 142.205243,17.7748156 142.456428,18.1658136 C142.707801,18.556626 142.888399,19.0016509 142.997846,19.4995885 C143.107857,19.9982689 143.160797,20.5054895 143.160797,21.0212504 C143.160797,21.5347835 143.111799,22.0421898 143.011738,22.5401275 L143.011738,22.5401275 Z M145.303191,16.2841588 C144.816966,15.6531035 144.203271,15.1458829 143.463796,14.7641678 C142.724509,14.3813388 141.843484,14.1912238 140.819408,14.1912238 C140.011974,14.1912238 139.273625,14.3481058 138.602297,14.6640975 C137.928716,14.9800893 137.375846,15.4871243 136.939557,16.1850168 L136.888307,16.1850168 L136.888307,14.539149 L133.485858,14.539149 L133.485858,31.9372623 L137.065901,31.9372623 L137.065901,25.8309348 L137.114336,25.8309348 C137.550624,26.4629184 138.110628,26.9398766 138.791343,27.2627377 C139.47018,27.5870841 140.213786,27.7500928 141.020281,27.7500928 C141.978276,27.7500928 142.813306,27.5657334 143.526874,27.2010989 C144.241005,26.8360931 144.837241,26.3452105 145.315957,25.7301219 C145.795424,25.1150334 146.150612,24.4097145 146.387529,23.612123 C146.62088,22.8141603 146.739902,21.9837072 146.739902,21.1196498 C146.739902,20.2058357 146.62088,19.3297105 146.387529,18.4897888 C146.150612,17.651538 145.790543,16.915771 145.303191,16.2841588 L145.303191,16.2841588 Z M121.771777,20.5467058 L124.114856,14.0159617 L124.164792,14.0159617 L126.432779,20.5467058 L121.771777,20.5467058 Z M122.149117,9.62939435 L115.347223,27.4251894 L119.327886,27.4251894 L120.737938,23.4621105 L127.465866,23.4621105 L128.825231,27.4251894 L132.932988,27.4251894 L126.206562,9.62939435 L122.149117,9.62939435 Z M115.044036,21.7802248 C114.808996,21.3732601 114.498113,21.0325756 114.111949,20.7576145 C113.725972,20.48451 113.283864,20.2635757 112.789567,20.0966682 C112.293392,19.9314316 111.78539,19.791259 111.264435,19.6742937 C110.760938,19.5578855 110.266078,19.4496462 109.778914,19.3497617 C109.29175,19.2495057 108.858278,19.1375533 108.480186,19.0139044 C108.102845,18.8887701 107.797218,18.7278037 107.561991,18.5267349 C107.325824,18.327894 107.20943,18.0709418 107.20943,17.7545788 C107.20943,17.4887149 107.275137,17.2770636 107.410116,17.118882 C107.545095,16.9618144 107.708797,16.8409504 107.901785,16.7572181 C108.095524,16.6745998 108.307848,16.62113 108.543827,16.5951377 C108.778867,16.5708164 108.99795,16.5591199 109.199011,16.5591199 C109.837674,16.5591199 110.391858,16.6790556 110.863252,16.9200411 C111.332018,17.1606553 111.593153,17.6220182 111.642714,18.30283 L115.044036,18.30283 C114.976829,17.5057956 114.77145,16.8455919 114.426775,16.3207336 C114.083038,15.7981033 113.649753,15.3783281 113.129549,15.0630789 C112.609908,14.7472728 112.017239,14.523368 111.352856,14.3900647 C110.689225,14.2569472 110.005318,14.1912238 109.301137,14.1912238 C108.594327,14.1912238 107.905164,14.2536053 107.23515,14.3768829 C106.561756,14.5022028 105.95726,14.7190526 105.420535,15.0257615 C104.882309,15.3330272 104.450713,15.7518742 104.122371,16.2841588 C103.794403,16.8157007 103.630514,17.4978122 103.630514,18.327894 C103.630514,18.8928546 103.74916,19.3716694 103.984576,19.7615535 C104.217551,20.1527372 104.529936,20.4754127 104.914974,20.7332932 C105.302452,20.9906167 105.743434,21.1989262 106.23867,21.3558081 C106.734282,21.5152893 107.242471,21.651563 107.762112,21.768157 C109.040002,22.0342064 110.035543,22.2993276 110.748736,22.5663054 C111.462679,22.8314266 111.819745,23.2302223 111.819745,23.7623212 C111.819745,24.0779417 111.744652,24.3384214 111.593153,24.5463596 C111.441653,24.7552261 111.252983,24.920277 111.026579,25.0450399 C110.798485,25.1703598 110.546173,25.2620754 110.270583,25.3190727 C109.993116,25.3775553 109.727851,25.4068895 109.47629,25.4068895 C109.123543,25.4068895 108.783373,25.3651162 108.45672,25.2823122 C108.128377,25.1989513 107.838707,25.0699182 107.587147,24.8955843 C107.335398,24.7212504 107.12833,24.4973456 106.969134,24.2225701 C106.810688,23.948166 106.729213,23.6212203 106.729213,23.23802 L103.328453,23.23802 C103.362808,24.1020774 103.559363,24.821135 103.921498,25.394079 C104.281004,25.9673942 104.742636,26.4280145 105.306394,26.7776105 C105.868839,27.125907 106.512195,27.3758041 107.23515,27.5258166 C107.956039,27.6749009 108.695327,27.7500928 109.450008,27.7500928 C110.189483,27.7500928 110.916192,27.6787997 111.630699,27.5386271 C112.344267,27.3969692 112.978425,27.1517136 113.532984,26.8021175 C114.088295,26.4538211 114.535659,25.9928295 114.881085,25.419143 C115.224447,24.8450851 115.396409,24.134939 115.396409,23.2874053 C115.396409,22.6884691 115.279077,22.1873752 115.044036,21.7802248 L115.044036,21.7802248 Z M100.255661,10.6765116 L96.6771202,10.6765116 L96.6771202,14.539149 L94.5112598,14.539149 L94.5112598,16.9066737 L96.6771202,16.9066737 L96.6771202,24.5088564 C96.6771202,25.1579206 96.7875064,25.6807366 97.0050874,26.079161 C97.2237948,26.4773998 97.5215373,26.7867078 97.8990657,27.0020724 C98.2771573,27.2179939 98.7141966,27.3631793 99.209996,27.4378142 C99.703918,27.5120779 100.231069,27.5497667 100.784126,27.5497667 C101.138188,27.5497667 101.498257,27.540855 101.868464,27.5258166 C102.237169,27.5089217 102.573021,27.4764313 102.875832,27.4251894 L102.875832,24.683376 C102.707249,24.7171659 102.531345,24.7429726 102.346054,24.7580109 C102.161701,24.7749059 101.968337,24.7838176 101.766714,24.7838176 C101.162781,24.7838176 100.759158,24.683376 100.556971,24.4841638 C100.356473,24.2849516 100.255661,23.8861559 100.255661,23.2874053 L100.255661,16.9066737 L102.875832,16.9066737 L102.875832,14.539149 L100.255661,14.539149 L100.255661,10.6765116 Z M90.0010063,22.4395002 C90.0010063,22.640569 89.9805435,22.9064328 89.9379284,23.23802 C89.896252,23.5714637 89.7828621,23.8982237 89.5981341,24.2225701 C89.4132184,24.5463596 89.1269276,24.8257765 88.7415145,25.0574791 C88.3553504,25.2906669 87.8096144,25.4068895 87.1031801,25.4068895 C86.8185789,25.4068895 86.540736,25.3821968 86.2722797,25.3311405 C86.0030725,25.2823122 85.7684079,25.1941241 85.5667841,25.0699182 C85.3655357,24.945341 85.2054006,24.7749059 85.0878806,24.5587987 C84.9709237,24.3428772 84.9116005,24.0779417 84.9116005,23.7623212 C84.9116005,23.4301771 84.9709237,23.1542877 85.0878806,22.9392945 C85.2054006,22.7243013 85.3612179,22.5449546 85.5545815,22.4034824 C85.7470065,22.2621958 85.9741618,22.1500577 86.2343579,22.0663255 C86.4947418,21.9837072 86.7586925,21.9172412 87.0284629,21.8674846 C87.3130641,21.8184706 87.5995427,21.7755833 87.8841439,21.742536 C88.1708102,21.7100457 88.4433966,21.6673441 88.7032172,21.6183301 C88.964352,21.5685734 89.207089,21.5054493 89.4344321,21.4306287 C89.661212,21.3558081 89.8495068,21.2533243 90.0010063,21.1196498 L90.0010063,22.4395002 Z M93.5786088,24.5587987 L93.5786088,17.8550203 C93.5786088,17.0728386 93.4030797,16.4460535 93.0490178,15.9731798 C92.6970209,15.4991921 92.2434612,15.1299162 91.6898405,14.8638667 C91.1345302,14.5981886 90.521023,14.4192132 89.8495068,14.3282403 C89.1781783,14.2367103 88.5141714,14.1912238 87.8597388,14.1912238 C87.1379105,14.1912238 86.4188982,14.261403 85.706081,14.4028752 C84.9904478,14.5441618 84.3493442,14.7810628 83.7777012,15.1130212 C83.2066214,15.4451653 82.7350395,15.8861057 82.3676486,16.4338 C81.9968785,16.9820513 81.7871822,17.6717748 81.7370579,18.5027849 L85.314285,18.5027849 C85.3813052,17.8047067 85.6176594,17.3056551 86.0210947,17.0069296 C86.4237792,16.7076471 86.9773999,16.5591199 87.6836465,16.5591199 C88.0022271,16.5591199 88.2999696,16.579728 88.5778124,16.62113 C88.8543412,16.6629033 89.0982047,16.744779 89.3084641,16.8700989 C89.5187236,16.9946761 89.6865557,17.1686387 89.8119605,17.3936575 C89.9379284,17.617748 90.0010063,17.9218576 90.0010063,18.30283 C90.0177144,18.6695067 89.9080791,18.9461388 89.6739777,19.1375533 C89.4381867,19.3297105 89.1196061,19.4754529 88.7161707,19.5738522 C88.3131108,19.6742937 87.8511031,19.7494857 87.3301477,19.797757 C86.8091923,19.8486276 86.2805399,19.9163932 85.7436273,19.9982689 C85.2054006,20.0816298 84.6718672,20.1935822 84.1441534,20.3348688 C83.6149378,20.4754127 83.1433559,20.688178 82.7322235,20.9694516 C82.3203402,21.2533243 81.9848637,21.6307692 81.7235412,22.1043856 C81.4637206,22.5783732 81.3338102,23.1812083 81.3338102,23.9115911 C81.3338102,24.5758794 81.4470124,25.1491946 81.6737923,25.630423 C81.9003844,26.1136936 82.2152105,26.5110041 82.6190213,26.8269958 C83.0222689,27.1428019 83.4923491,27.3758041 84.0296371,27.5258166 C84.5665497,27.6749009 85.1464529,27.7500928 85.7684079,27.7500928 C86.5747155,27.7500928 87.3643149,27.6333133 88.1357043,27.4017964 C88.9087834,27.1674946 89.581426,26.7616438 90.1525058,26.1792313 C90.1692139,26.3951528 90.1986877,26.6077325 90.2399887,26.8147423 C90.2820406,27.0219379 90.337046,27.2265342 90.4042539,27.4251894 L94.0327318,27.4251894 C93.8648997,27.1608109 93.746441,26.7616438 93.679984,26.2289879 C93.6120251,25.6976316 93.5786088,25.1421396 93.5786088,24.5587987 L93.5786088,24.5587987 Z M78.8394195,15.6480907 C78.4870471,15.190998 78.0040135,14.8343469 77.3916328,14.5760951 C76.7779379,14.3200713 75.9924686,14.1912238 75.035788,14.1912238 C74.3635208,14.1912238 73.6752965,14.3609163 72.9688622,14.7023433 C72.263742,15.0419138 71.6842143,15.5866376 71.2308423,16.3348437 L71.1551865,16.3348437 L71.1551865,9.62939435 L67.5775839,9.62939435 L67.5775839,27.4251894 L71.1551865,27.4251894 L71.1551865,20.6709117 C71.1551865,19.358302 71.3735184,18.4158964 71.8105577,17.8416529 C72.2468462,17.2690802 72.9521541,16.9820513 73.9268569,16.9820513 C74.7832888,16.9820513 75.3795247,17.2438306 75.7155644,17.7677605 C76.0516041,18.2905765 76.2194362,19.0844548 76.2194362,20.1473531 L76.2194362,27.4251894 L79.7974142,27.4251894 L79.7974142,19.4995885 C79.7974142,18.7023684 79.7253252,17.9758844 79.5832124,17.3180942 C79.4401608,16.6629033 79.1925427,16.1057404 78.8394195,15.6480907 L78.8394195,15.6480907 Z M59.9432875,21.8923629 L59.8937264,21.8923629 L56.8199956,9.62939435 L53.1160497,9.62939435 L49.9914436,21.742536 L49.941507,21.742536 L47.0941807,9.62939435 L43.1390497,9.62939435 L47.900676,27.4251894 L51.9070577,27.4251894 L54.9047571,15.3118621 L54.9552569,15.3118621 L58.0036439,27.4251894 L61.9343697,27.4251894 L66.7720273,9.62939435 L62.891989,9.62939435 L59.9432875,21.8923629 Z M27.1467514,22.1723368 C26.6834296,21.9430478 24.4060566,20.8348487 23.9814076,20.6820513 C23.5569462,20.5292539 23.2479399,20.4527623 22.9391213,20.9111546 C22.6304904,21.3699182 21.7427073,22.4018114 21.4725614,22.7072206 C21.2022278,23.0133725 20.9320819,23.0516182 20.4689479,22.8225149 C20.0056261,22.5928546 18.5129716,22.1092127 16.7437882,20.5481911 C15.3665887,19.333795 14.4371291,17.8332982 14.1667955,17.3747203 C13.8964619,16.916328 14.1378848,16.6684731 14.3699212,16.4399267 C14.5783033,16.2349591 14.8330552,15.9046716 15.0647161,15.6375082 C15.2961893,15.3696021 15.3735347,15.1787445 15.5280379,14.8727784 C15.6823533,14.5673692 15.6050079,14.2994631 15.4893652,14.0703598 C15.3735347,13.8410708 14.4470789,11.5862412 14.0611026,10.6690853 C13.685076,9.77587937 13.3032298,9.89655778 13.0188163,9.88281901 C12.7490459,9.86908023 12.4398518,9.86629535 12.1310332,9.86629535 C11.8222146,9.86629535 11.3204078,9.98140398 10.8959465,10.4397963 C10.4712975,10.8981886 9.27469575,12.0065733 9.27469575,14.2612173 C9.27469575,16.5162326 10.9344315,18.6945707 11.1660924,19.0007226 C11.3977533,19.3059461 14.4324358,23.9334989 19.079358,25.9176376 C20.1845344,26.389583 21.0473492,26.6714135 21.7199918,26.8826936 C22.8296737,27.2311757 23.8394824,27.1821617 24.6377175,27.0642682 C25.5275657,26.9326359 27.3782245,25.9556977 27.7642009,24.8857444 C28.1501772,23.8156054 28.1501772,22.8988208 28.0343467,22.7072206 C27.918704,22.5163631 27.6098854,22.4018114 27.1467514,22.1723368 L27.1467514,22.1723368 Z M18.6946958,33.585358 L18.6883129,33.585358 C15.9235885,33.5844297 13.2116167,32.8494054 10.8458222,31.4612324 L10.2830026,31.1311305 L4.45130578,32.6440664 L6.00797685,27.0208239 L5.64152461,26.4441668 C4.09912116,24.0179738 3.28436568,21.2134076 3.28549207,18.3343921 C3.28887124,9.93238998 10.2013393,3.09679362 18.7007032,3.09679362 C22.8163448,3.09809323 26.6851192,4.68547845 29.594397,7.56579357 C32.5036748,10.4461087 34.105026,14.2749561 34.1033364,18.3468313 C34.0999572,26.7492047 27.1874891,33.585358 18.6946958,33.585358 L18.6946958,33.585358 Z M18.6945081,0 C8.4760852,0 0.159571925,8.22432636 0.155441828,18.3330925 C0.154127707,21.5646746 1.00774364,24.7188369 2.63012079,27.4987104 L0,37 L9.82775327,34.4503437 C12.535595,35.9109238 15.5841697,36.6806664 18.6871866,36.6817803 L18.6946958,36.6817803 C28.9119923,36.6817803 37.2292565,28.4567113 37.2333866,18.3475739 C37.2354517,13.4491445 35.3087615,8.84257113 31.8086921,5.37705856 C28.3086227,1.91173165 23.6538158,0.00241356817 18.6945081,0 L18.6945081,0 Z" id="Fill-1" fill="#9AA8BD" fill-rule="nonzero"></path></svg>