<svg xmlns="http://www.w3.org/2000/svg" viewBox="0 0 130 34"><path fill="#FFF" d="M.1.1h23.8v19.8L12 31.8.1 19.9z"/><path fill="#A5BBDB" d="M23.9 20L12 31.9l-.1-.1v-24l12 12z"/><path fill="#344f71" d="M0 0h23.9v20L12 8v23.9L0 20zM35 16l.8-3.1h4l.8 3.1h3.1L39.8 2.1H36L32.1 16H35zm4.1-5.2h-2.8l1.3-6 1.5 6zM48.9 9.9h1.7c1.5 0 1.9.7 1.9 2 0 1.9-1.4 2-2 2h-1.6v-4zm0-5.7h1.8c1 0 1.7.7 1.7 1.8 0 1.3-.9 1.8-1.5 1.8H49c-.1 0-.1-3.6-.1-3.6zM51.1 16c1.2 0 4.3-.2 4.3-3.7 0-1.9-.5-3.2-2.6-3.5 1.6-.3 2.4-1.5 2.4-3.1 0-3-1.8-3.6-4-3.6H46V16h5.1zM61.5 16V5.8L65.3 16h3.8V2.1h-2.7v9.6l-3.7-9.6h-3.9V16zM73.7 9.8L75.5 8l-1.8-1.9L71.8 8zM79.3 16l.8-3.1h4l.8 3.1H88L84.1 2.1h-3.8L76.5 16h2.8zm4.2-5.2h-2.8l1.3-6 1.5 6zM93.1 16V5.3L95.7 16h2.7l2.7-10.7V16h2.9V2.1h-4.5l-2.3 9.4h-.1l-2.2-9.4h-4.6V16zM110.7 4.2h1.3c.9 0 1.5.5 1.5 1.8 0 .9-.3 2-1.5 2h-1.3V4.2zm0 6h.7c2.2 0 2.1 1.4 2.1 3.1 0 .9-.1 1.8.3 2.7h2.8c-.3-.6-.3-3.2-.3-4.1 0-2.5-1.9-2.6-2.5-2.7 1.9-.3 2.6-1.6 2.6-3.4 0-2.4-1.3-3.6-3.2-3.6h-5.4V16h2.9v-5.8zM124.2 14.1c-1.6 0-1.8-1.5-1.8-5.1 0-3.6.2-5.1 1.8-5.1S126 5.4 126 9c.1 3.6-.1 5.1-1.8 5.1zm0 2.1c4.8 0 4.8-3.5 4.8-7.2s0-7.2-4.8-7.2-4.8 3.5-4.8 7.2 0 7.2 4.8 7.2z"/></svg>