<svg xmlns="http://www.w3.org/2000/svg"><path d="M118.004 59.118c0 32.684-26.31 58.882-59.113 58.882C26.439 118 0 91.686 0 59.234 0 26.078 26.439 0 59.947 0c31.864 0 58.057 26.787 58.057 59.118m-111.861 0c0 29.145 23.599 52.744 52.748 52.744 29.255 0 52.98-23.479 52.98-52.628 0-29.733-23.364-53.1-53.337-53.1-28.672 0-52.391 23.956-52.391 52.984zm39.883-2.362l-.705 1.417c-2.714-.588-7.676-2.478-12.865-4.836l-.708 1.297 2.126 1.181c7.556 3.892 10.034 4.716 14.394 4.716 8.732 0 15.339-4.957 18.41-13.685 5.43-1.06 12.388-1.533 20.653-1.533 7.078 0 13.217.352 21.12 1.293l-2.001 2.478c-3.66-.472-10.387-.94-15.223-.94-5.786 0-9.442.12-11.327.236l-.945 2.122c4.836-.237 6.606-.237 10.377-.237 6.375 0 11.447.237 15.575.589l-2.001 2.599c-7.436-.237-10.86-.353-16.405-.353-3.066 0-5.304.116-8.973.237l-.94 2.122c3.182-.237 7.55-.353 12.156-.353 4.368 0 9.561.116 12.624.237l-1.997 2.594c-2.135-.12-6.254-.12-9.446-.12-5.073 0-11.443.24-14.75.708l-.946 1.89c6.014-.588 9.794-.824 16.4-.824 2.604 0 4.248 0 7.2.236l-2.243 2.715c-4.007-.236-5.304-.236-6.842-.236-11.216 0-18.522 1.649-25.846 5.777 6.727 6.73 17.938 11.327 27.968 11.327.829 0 1.297 0 3.419-.112l-4.837 4.832c-26.661-6.962-31.387-8.848-55.81-23.358-9.678-5.55-17.586-9.325-23.956-11.21l.825-2.956c1.538.24 4.84 1.185 7.908 2.246l1.408-3.187 26.203 11.09zM216.39 19.708v63.125h33.276v15.58h-52.98V19.708h19.704m74.46 78.705l-.588-5.545c-4.6 4.832-9.798 7.078-16.283 7.078-8.029 0-14.52-3.307-17.818-8.969-2.487-4.248-2.835-6.37-2.835-15.695V41.769h18.526v32.804c0 8.26 2.358 11.684 8.14 11.684 6.138 0 9.2-4.012 9.2-11.684V41.77h18.527v56.644H290.85zm58.883-66.197h-3.067c-6.838 0-8.617 1.65-8.617 7.904v1.649h10.98v12.508h-10.98v44.136h-18.522V54.277h-8.024V41.77h8.024v-1.65c0-14.866 5.55-20.411 20.06-20.411h10.146v12.508zm28.44-8.144v17.697h10.497v12.508h-10.497v22.418c.111 8.265.584 8.737 7.667 8.737h3.66v12.98h-13.926c-10.975 0-15.932-5.076-15.932-16.635v-27.5h-7.788V41.77h7.788V24.072h18.53zm33.976-4.364v28.436c3.428-5.546 8.265-8.024 15.468-8.024 7.783 0 14.038 3.303 17.466 9.32 2.474 4.37 2.826 6.727 2.826 16.169v32.804h-18.41v-32.1c0-8.14-2.475-11.8-8.14-11.8-6.13 0-9.205 4.012-9.205 11.8v32.1h-18.518V19.708h18.513zm43.672 40.12c0-12.866 10.021-20.417 26.782-20.417 17.581 0 26.314 7.32 26.314 22.186v28.908c0 4.952 0 4.952 1.533 7.908h-17.113l-1.065-4.72c-5.898 5.188-10.975 7.078-18.397 7.078-12.513 0-21.602-7.435-21.602-17.697 0-8.5 5.545-14.519 16.4-17.586 1.653-.468 7.083-1.533 16.404-3.303 4.012-.824 5.55-2.122 5.55-4.836 0-3.188-3.308-5.314-8.265-5.314-6.018 0-9.557 2.835-9.673 7.792h-16.868zm35.265 11.442c-2.35.709-3.058.945-4.953 1.533a91.872 91.872 0 0 1-6.713 1.538c-6.027 1.534-8.978 3.892-8.978 7.552 0 3.655 2.84 5.781 7.436 5.781 8.964 0 13.208-4.016 13.208-12.392V71.27zm41.193-29.501l.593 6.375c4.364-5.546 9.562-8.024 16.41-8.024 7.898 0 14.268 3.423 17.571 9.32 2.358 4.37 2.835 6.843 2.835 16.169v32.804h-18.526v-32.1c0-8.376-2.353-11.8-8.14-11.8-6.017 0-9.084 4.012-9.084 11.8v32.1h-18.526V41.769h16.867zM610.4 59.471c-.472-5.31-2.719-7.316-8.384-7.316-4.6 0-7.44 1.775-7.44 4.721 0 2.715 2.714 4.364 8.853 5.31l6.379 1.176c13.444 2.247 19.703 7.908 19.703 17.706 0 12.036-10.266 19.703-26.314 19.703-18.999 0-29.385-7.551-29.385-21.24h18.053v.708c0 4.72 3.892 7.672 10.15 7.672 5.43 0 8.738-2.006 8.738-5.194 0-3.307-3.072-5.188-10.28-6.49l-5.897-.945c-13.445-2.358-19.226-7.2-19.226-16.164 0-12.272 10.266-19.707 27.138-19.707 11.804 0 19.115 3.187 22.89 10.03 1.654 2.83 1.895 3.775 2.363 10.03H610.4zm25.837.356c.12-12.744 10.15-20.416 27.023-20.416 17.585 0 26.198 7.32 26.198 22.186v28.908c0 4.841 0 4.841 1.542 7.908h-17.233l-.945-4.72c-6.843 5.549-10.86 7.078-18.41 7.078-12.62 0-21.71-7.435-21.71-17.697 0-8.5 5.55-14.519 16.4-17.586 1.654-.468 7.083-1.653 16.409-3.303 3.891-.824 5.545-2.122 5.545-4.836 0-3.188-3.307-5.314-8.148-5.314-6.014 0-9.665 2.951-9.665 7.792h-17.006zM671.64 71.27c-2.362.709-3.196.945-5.086 1.533-1.993.357-4.248.83-6.722 1.538-6.014 1.534-8.965 3.892-8.965 7.552 0 3.655 2.835 5.781 7.552 5.781 8.964 0 13.217-4.016 13.217-12.392V71.27z" fill="#344f71"/></svg>