<svg height="63px" width="155px" version="1.1" viewBox="0 0 155 56" class="css-1xaekgw eop8cnr5"><defs></defs><g fill="none" stroke="none" stroke-width="1"><g transform="translate(0.000000, -19.000000)"><g><g transform="translate(-3.000000, 20.000000)"><g fill="#8484FF" font-size="17" transform="translate(75.363573, 51.041791) rotate(45.000000) translate(-75.363573, -51.041791) translate(70.863573, 39.541791)"><text id="+"><tspan x="0.192" y="16.192">+</tspan></text></g><g fill="#8484FF" font-size="17" transform="translate(38.363573, 38.041791) rotate(45.000000) translate(-38.363573, -38.041791) translate(33.863573, 26.541791)"><text id="+"><tspan x="0.192" y="16.192">+</tspan></text></g><g fill="#8484FF" font-size="17" transform="translate(106.363573, 23.041791) rotate(45.000000) translate(-106.363573, -23.041791) translate(101.863573, 11.541791)"><text id="+"><tspan x="0.192" y="16.192">+</tspan></text></g><path d="M112.016,0 L81,0" fill="#D8D8D8" stroke="#8484FF" stroke-linecap="square" stroke-width="2"></path><path d="M31.016,8 L0,8" fill="#D8D8D8" stroke="#8484FF" stroke-dasharray="4" stroke-linecap="square"></path><path d="M123,19 L123,19.4 C123,24.7019336 127.298066,29 132.6,29 L133,29" stroke="#8484FF" stroke-linecap="square" stroke-width="2"></path><path d="M22,32 L22,39 M123,10.983 L123,19" fill="#D8D8D8" stroke="#8484FF" stroke-linecap="square" stroke-width="2"></path><path d="M42,18.983 L42,30.597" fill="#D8D8D8" stroke="#8484FF" stroke-dasharray="4" stroke-linecap="square"></path><path d="M22,30 L22,29.6 C22,24.2980664 26.2980664,20 31.6,20 L32,20 M70,10 L70,9.6 C70,4.2980664 74.2980664,8.8817842e-16 79.6,0 L80,0 M123,10 L123,9.6 C123,4.2980664 118.701934,9.76996262e-15 113.4,0 L113,0" stroke="#8484FF" stroke-linecap="square" stroke-width="2"></path><path d="M42,18 L42,17.6 C42,15.0539217 40.9885743,12.6121241 39.1882251,10.8117749 C37.3878759,9.01142567 34.9460783,8 32.4,8 L32,8" stroke="#8484FF" stroke-dasharray="4" stroke-linecap="square"></path><path d="M14,49 L72.26,49 M47,20 L105.26,20" stroke="#8484FF" stroke-dasharray="4"></path><path d="M62.016,20 L31,20 M136,29 L133,29 M11.016,49 L1,49" fill="#D8D8D8" stroke="#8484FF" stroke-linecap="square" stroke-width="2"></path><path d="M70,10 L70,10.4 C70,15.7019336 65.7019336,20 60.4,20 L60,20 M22,39 L22,39.4 C22,41.9460783 20.9885743,44.3878759 19.1882251,46.1882251 C17.3878759,47.9885743 14.9460783,49 12.4,49 L12,49" stroke="#8484FF" stroke-linecap="square" stroke-width="2"></path><g stroke="#8484FF" stroke-linecap="round" stroke-width="2" transform="translate(140.000000, 21.000000)"><path d="M15,7.5 C15,11.6421356 11.6421356,15 7.5,15 C3.35786438,15 0,11.6421356 0,7.5 C0,3.35786438 3.35786438,0 7.5,0 C11.6421356,0 15,3.35786438 15,7.5 Z"></path><polyline points="10 6 6.644 9.333 5 7.627"></polyline></g></g></g></g></g></svg>