<svg viewBox="0 0 18 18" xmlns="http://www.w3.org/2000/svg" width="16px" height="16px"><g fill="none" stroke-linecap="round" stroke-linejoin="round" stroke-miterlimit="10" stroke-width="2"><path d="M6,7H2 C1.4,7,1,6.6,1,6V2c0-0.6,0.4-1,1-1h4c0.6,0,1,0.4,1,1v4C7,6.6,6.6,7,6,7z" stroke="#9AA8BD"></path><path d="M6,17 H2c-0.6,0-1-0.4-1-1v-4c0-0.6,0.4-1,1-1h4c0.6,0,1,0.4,1,1v4C7,16.6,6.6,17,6,17z" stroke="#9AA8BD"></path><path d="M16,17 h-4c-0.6,0-1-0.4-1-1v-4c0-0.6,0.4-1,1-1h4c0.6,0,1,0.4,1,1v4C17,16.6,16.6,17,16,17z" stroke="#9AA8BD"></path><line stroke="#9AA8BD" x1="14" x2="14" y1="1" y2="7"></line><line stroke="#9AA8BD" x1="11" x2="17" y1="4" y2="4"></line></g></svg>