<svg version="1.1" id="Layer_1" xmlns="http://www.w3.org/2000/svg" xmlns:xlink="http://www.w3.org/1999/xlink" x="0px" y="0px" viewBox="0 0 22 22" xml:space="preserve" width="16px" height="16px"><g><path d="M5.6,15.6l-3.3,0.6v-3.4C1.5,11.6,1,10.2,1,8.6C1,4.4,4.4,1,8.6,1s7.6,3.4,7.6,7.6s-3.4,7.6-7.6,7.6C7.5,16.2,6.5,16,5.6,15.6z" fill="none" stroke="#9AA8BD" stroke-width="2" stroke-linecap="round" stroke-linejoin="round" stroke-miterlimit="10"></path><path d="M19,8.3c1.2,1.4,2,3.1,2,5.1c0,1.6-0.5,3-1.3,4.2" fill="none" stroke="#9AA8BD" stroke-width="2" stroke-linecap="round" stroke-linejoin="round" stroke-miterlimit="10"></path><path d="M16.4,20.4c-0.9,0.4-1.9,0.6-3,0.6c-1.8,0-3.5-0.6-4.8-1.7" fill="none" stroke="#9AA8BD" stroke-width="2" stroke-linecap="round" stroke-linejoin="round" stroke-miterlimit="10"></path><polyline points="19.7,17.6 19.7,21 16.4,20.4" fill="none" stroke="#9AA8BD" stroke-width="2" stroke-linecap="round" stroke-linejoin="round" stroke-miterlimit="10"></polyline><circle cx="8.5" cy="8.5" r="0.5" fill="none" stroke="#9AA8BD" stroke-miterlimit="10"></circle><circle cx="5.5" cy="8.5" r="0.5" fill="none" stroke="#9AA8BD" stroke-miterlimit="10"></circle><circle cx="11.5" cy="8.5" r="0.5" fill="none" stroke="#9AA8BD" stroke-miterlimit="10"></circle></g></svg>