<svg viewBox="0 0 18 18" version="1.1" xmlns="http://www.w3.org/2000/svg" width="16px" height="16px"><g stroke="none" stroke-width="1" fill="none" fill-rule="evenodd" stroke-linecap="round" stroke-linejoin="round"><g transform="translate(-123.000000, -111.000000)" stroke="#9AA8BD" stroke-width="2"><g transform="translate(124.000000, 112.000000)"><path d="M8,5.4 L8,5.2 C8,7 6.95654297,7.8 5.4,7.8 L4,7.8 C3.12,7.8 2.4,8.52 2.4,9.4 L2.4,10.2"></path><path d="M8,5.4 L8,5.2 C8,6.85229492 9.07214355,7.8 10.6,7.8 L12,7.8 C12.88,7.8 13.6,8.52 13.6,9.4 L13.6,10.2"></path><path d="M4.8,13.6 C4.8,14.92548 3.7254832,16 2.4,16 C1.0745168,16 0,14.92548 0,13.6 C0,12.27452 1.0745168,11.2 2.4,11.2 C3.7254832,11.2 4.8,12.27452 4.8,13.6 Z"></path><path d="M16,13.6 C16,14.92548 14.92548,16 13.6,16 C12.27452,16 11.2,14.92548 11.2,13.6 C11.2,12.27452 12.27452,11.2 13.6,11.2 C14.92548,11.2 16,12.27452 16,13.6 Z"></path><path d="M10.2,2.2 C10.2,3.41502645 9.215027,4.4 8,4.4 C6.78497355,4.4 5.8,3.41502645 5.8,2.2 C5.8,0.98497355 6.78497355,0 8,0 C9.215027,0 10.2,0.98497355 10.2,2.2 Z"></path></g></g></g></svg>