<svg viewBox="0 0 22 22" xmlns="http://www.w3.org/2000/svg" width="16px" height="16px"><g transform="translate(1, 1)" stroke="none" stroke-width="2" fill="none"><path d="M10,8 L9.5,8 C8.1,8 7,6.9 7,5.5 C7,4.1 8.1,3 9.5,3 L10,3 L10,0 L19,0 C19.6,0 20,0.4 20,1 L20,19 C20,19.6 19.6,20 19,20 L14,20" id="Shape" stroke="#9AA8BD"></path><path d="M10,12 L10.5,12 C11.9,12 13,13.1 13,14.5 C13,15.9 11.9,17 10.5,17 L10,17 L10,20 L1,20 C0.4,20 0,19.6 0,19 L0,1 C0,0.4 0.4,0 1,0 L6,0" id="Shape" stroke="#9AA8BD"></path></g></svg>