<svg id="Layer_1" viewBox="0 0 64 64" xmlns="http://www.w3.org/2000/svg" stroke="currentColor" class="css-19116ui e1azhqbr1"><line fill="none" stroke="#48578c" stroke-linecap="round" stroke-linejoin="round" stroke-miterlimit="10" stroke-width="2" x1="47" x2="47" y1="24.6" y2="45.6"></line><path d="M47.1,15.6c4.4,0,8,6.7,8,15s-3.6,15-8,15c-4.1,0-7.5-5.9-8-13.5" fill="none" stroke="#48578c" stroke-linecap="round" stroke-linejoin="round" stroke-miterlimit="10" stroke-width="2"></path><line fill="none" stroke="#48578c" stroke-linecap="round" stroke-linejoin="round" stroke-miterlimit="10" stroke-width="2" x1="33" x2="61" y1="35.6" y2="35.6"></line><line fill="none" stroke="#48578c" stroke-linecap="round" stroke-linejoin="round" stroke-miterlimit="10" stroke-width="2" x1="47" x2="61" y1="25.6" y2="25.6"></line><path d="M13,11.9v43.7c0,3.4,2.5,5.9,5.5,5.9h4.4h29.1" fill="none" stroke="#48578c" stroke-linecap="round" stroke-linejoin="round" stroke-miterlimit="10" stroke-width="2"></path><path d="M56,11.4c0-5.5-4.5-9.9-9.9-9.9" fill="none" stroke="#48578c" stroke-linecap="round" stroke-linejoin="round" stroke-miterlimit="10" stroke-width="2"></path><polyline fill="none" points="56,50.7 56,51.6 56,48.5" stroke="#48578c" stroke-linecap="round" stroke-linejoin="round" stroke-miterlimit="10" stroke-width="2"></polyline><path d="M56,11.4c0-5.5-4.5-9.9-9.9-9.9H7.9" fill="none" stroke="#48578c" stroke-linecap="round" stroke-linejoin="round" stroke-miterlimit="10" stroke-width="2"></path><path d="M22.9,61.5h29.1c5.5,0,9.9-4.4,9.9-9.9v0H24v0" fill="#E5F0FA" stroke="#48578c" stroke-linecap="round" stroke-linejoin="round" stroke-miterlimit="10" stroke-width="2"></path><path d="M24,51.6V56c0,1.5-0.6,2.9-1.6,3.9c-1,1-2.4,1.6-3.9,1.6c-3,0-5.5-2.5-5.5-5.5" fill="none" stroke="#48578c" stroke-linecap="round" stroke-linejoin="round" stroke-miterlimit="10" stroke-width="2"></path><path d="M13,11.4H2V7c0-3,2.5-5.5,5.5-5.5c1.5,0,2.9,0.6,3.9,1.6S13,5.5,13,7V11.4" fill="#E5F0FA" stroke="#48578c" stroke-linecap="round" stroke-linejoin="round" stroke-miterlimit="10" stroke-width="2"></path><path d="M47,15.6c8.3,0,15,6.7,15,15s-6.7,15-15,15s-15-6.7-15-15c0-1,0.1-2,0.3-3" fill="none" stroke="#48578c" stroke-linecap="round" stroke-linejoin="round" stroke-miterlimit="10" stroke-width="2"></path><line fill="none" stroke="#d7dbeb" stroke-linecap="round" stroke-linejoin="round" stroke-miterlimit="10" stroke-width="2" x1="19.1" x2="32" y1="12.6" y2="12.6"></line><line fill="none" stroke="#d7dbeb" stroke-linecap="round" stroke-linejoin="round" stroke-miterlimit="10" stroke-width="2" x1="19.1" x2="29" y1="20.4" y2="20.4"></line><line fill="none" stroke="#d7dbeb" stroke-linecap="round" stroke-linejoin="round" stroke-miterlimit="10" stroke-width="2" x1="19" x2="27" y1="27.5" y2="27.5"></line><line fill="none" stroke="#d7dbeb" stroke-linecap="round" stroke-linejoin="round" stroke-miterlimit="10" stroke-width="2" x1="19" x2="27" y1="34.5" y2="34.5"></line><line fill="none" stroke="#d7dbeb" stroke-linecap="round" stroke-linejoin="round" stroke-miterlimit="10" stroke-width="2" x1="19" x2="29" y1="41.5" y2="41.5"></line><path d="M38.7,29.1l-4.4-4c-4.3-4-1.5-11.2,4.4-11.2h0c5.9,0,8.7,7.2,4.4,11.2L38.7,29.1z" fill="#ff9f90" stroke="none"></path><circle cx="38.7" cy="20.4" fill="#fff" r="2.1" stroke="none"></circle></svg>