<svg version="1.1" viewBox="0 0 15 18" height="20px" width="20px"><g id="Symbols" fill="none" stroke="none" stroke-linecap="round" stroke-width="1"><g id="icon-dashboard-numbers-b" fill="#9AA8BD" stroke="#9AA8BD" stroke-width="2"><g transform="translate(1.000000, 1.000000)"><path d="M1,0.5 C1,0.776 0.776,1 0.5,1 C0.224,1 0,0.776 0,0.5 C0,0.224 0.224,0 0.5,0 C0.776,0 1,0.224 1,0.5 Z"></path><path d="M7,0.5 C7,0.776 6.776,1 6.5,1 C6.224,1 6,0.776 6,0.5 C6,0.224 6.224,0 6.5,0 C6.776,0 7,0.224 7,0.5 Z"></path><path d="M13,0.5 C13,0.776 12.776,1 12.5,1 C12.224,1 12,0.776 12,0.5 C12,0.224 12.224,0 12.5,0 C12.776,0 13,0.224 13,0.5 Z"></path><path d="M1,5.5 C1,5.776 0.776,6 0.5,6 C0.224,6 0,5.776 0,5.5 C0,5.224 0.224,5 0.5,5 C0.776,5 1,5.224 1,5.5 Z"></path><path d="M7,5.5 C7,5.776 6.776,6 6.5,6 C6.224,6 6,5.776 6,5.5 C6,5.224 6.224,5 6.5,5 C6.776,5 7,5.224 7,5.5 Z"></path><path d="M13,5.5 C13,5.776 12.776,6 12.5,6 C12.224,6 12,5.776 12,5.5 C12,5.224 12.224,5 12.5,5 C12.776,5 13,5.224 13,5.5 Z"></path><path d="M1,10.5 C1,10.776 0.776,11 0.5,11 C0.224,11 0,10.776 0,10.5 C0,10.224 0.224,10 0.5,10 C0.776,10 1,10.224 1,10.5 Z"></path><path d="M7,10.5 C7,10.776 6.776,11 6.5,11 C6.224,11 6,10.776 6,10.5 C6,10.224 6.224,10 6.5,10 C6.776,10 7,10.224 7,10.5 Z"></path><path d="M7,15.5 C7,15.776 6.776,16 6.5,16 C6.224,16 6,15.776 6,15.5 C6,15.224 6.224,15 6.5,15 C6.776,15 7,15.224 7,15.5 Z"></path><path d="M13,10.5 C13,10.776 12.776,11 12.5,11 C12.224,11 12,10.776 12,10.5 C12,10.224 12.224,10 12.5,10 C12.776,10 13,10.224 13,10.5 Z"></path></g></g></g></svg>