<svg version="1.1" id="Layer_1" xmlns="http://www.w3.org/2000/svg" xmlns:xlink="http://www.w3.org/1999/xlink" x="0px" y="0px" viewBox="0 0 22 22" xml:space="preserve" width="16px" height="16px"><g><g><path d="M6.1,11c1.5,1.7,3.2,3.4,4.9,4.9c0.2,0.1,0.4,0.1,0.6,0l0.7-0.7c0.4-0.4,1.1-0.4,1.6,0l1.4,1.4c0.4,0.4,0.4,1.1,0,1.6l-0.7,0.7 c-1.4,1.4-3.6,1.5-5.1,0.2c-2.4-2-4.6-4.2-6.6-6.6C1.7,11,1.8,8.8,3.1,7.4l0.7-0.7c0.4-0.4,1.1-0.4,1.6,0l1.4,1.4 c0.4,0.4,0.4,1.1,0,1.6l-0.7,0.7C6,10.5,6,10.8,6.1,11z" fill="none" stroke="#9AA8BD" stroke-width="2" stroke-linecap="round" stroke-linejoin="round" stroke-miterlimit="10"></path><path d="M14.1,10.1c0.5,0.2,1.1,0.3,1.7,0.3c2.3,0,4.2-1.9,4.2-4.2S18.1,2,15.8,2s-4.2,1.9-4.2,4.2c0,0.9,0.3,1.7,0.7,2.3" fill="none" stroke="#9AA8BD" stroke-width="2" stroke-linecap="round" stroke-linejoin="round" stroke-miterlimit="10"></path><polyline points="12.3,8.6 12.3,10.5 14.1,10.1" fill="none" stroke="#9AA8BD" stroke-linecap="round" stroke-linejoin="round" stroke-miterlimit="10"></polyline></g></g></svg>