<svg viewBox="0 0 636 506" fill="none" xmlns="http://www.w3.org/2000/svg">
  <g clip-path="url(#clip0)" fill="#6A52FF">
    <path d="M197.27 0h53.68c4.6 0 7.54 5.03 5.2 9.04L70.12 331.33a12.06 12.06 0 0 1-10.4 6.04H6.02a6.02 6.02 0 0 1-5.21-9.03L186.86 6.1c2.1-3.77 6.1-6.1 10.41-6.1z"/>
    <path d="M258.98 168.69h53.68c4.6 0 7.54 5.02 5.2 9.03L131.82 499.96a12.06 12.06 0 0 1-10.41 6.04H67.73a6 6 0 0 1-5.2-9.04l186.04-322.23a11.94 11.94 0 0 1 10.41-6.04z"/>
    <path d="M515.07 0h53.68c4.6 0 7.54 5.03 5.2 9.04L387.92 331.33a12.07 12.07 0 0 1-10.4 6.04h-53.68a6.02 6.02 0 0 1-5.21-9.03L504.66 6.1c2.1-3.77 6.1-6.1 10.41-6.1z"/>
    <path d="M576.27 168.69h53.68c4.6 0 7.54 5.02 5.2 9.03L449.12 499.96a12.06 12.06 0 0 1-10.4 6.04h-53.68a6.02 6.02 0 0 1-5.21-9.04l186.04-322.23a11.94 11.94 0 0 1 10.41-6.04z"/>
  </g>
  <defs>
    <clipPath id="clip0">
      <path fill="#fff" d="M0 0h636v506H0z"/>
    </clipPath>
  </defs>
</svg>
