<svg id="Layer_1" data-name="Layer 1" xmlns="http://www.w3.org/2000/svg" viewBox="0 0 800 300"><defs><style>.cls-1{fill:none;}</style></defs><title>whiteArtboard 1</title><rect class="cls-1" width="800" height="300"/><path d="M270.81,205.79v12.44H245.18V83.2h25.57v49.7c.4-.43.62-.65.82-.88a36.75,36.75,0,0,1,22.88-13.48c15.7-2.59,32.78,3.34,42.23,19.51a55.73,55.73,0,0,1,7.25,22.46A72.06,72.06,0,0,1,342,188.33c-2.34,8.3-6.21,15.76-12.6,21.71a39.59,39.59,0,0,1-24.22,10.57,37.64,37.64,0,0,1-23.6-5.22,41.14,41.14,0,0,1-9.83-8.46Zm0-36.29v16.18a3,3,0,0,0,.79,2.2c7.06,7.78,15.81,11.15,26.21,9.56,8.36-1.28,14-6.31,17.42-13.93,3.14-7.08,3.34-14.52,1.94-22a26.1,26.1,0,0,0-7.77-14.55c-5.45-5.15-12.07-6.78-19.27-5.9a27.48,27.48,0,0,0-18.59,10.23,3.14,3.14,0,0,0-.7,2.14q0,8.09,0,16.11Z"/><path d="M610.5,177.53a25.45,25.45,0,0,0,5.26,12.66,25.09,25.09,0,0,0,18.45,9.86,41.48,41.48,0,0,0,29.08-8.14c.27-.2.53-.42.79-.64l.8-.7,11.44,16.72c-1.87,1.39-3.64,2.85-5.57,4.11-6.49,4.29-13.74,6.68-21.32,8.1a66.74,66.74,0,0,1-21,.8c-16.94-2.2-30.4-9.86-38.83-25.18a50.27,50.27,0,0,1-5.93-20.75A54.17,54.17,0,0,1,587,149.81c7-17.42,19.88-27.87,38.32-31.13a48.94,48.94,0,0,1,30.74,4.1c11.75,5.78,19.4,15.17,23.73,27.4a63,63,0,0,1,3.48,20.25c0,2.33,0,4.66,0,7.09Zm-.43-17.46h48.22a7.76,7.76,0,0,0,0-.94c-.86-6.6-3.55-12.18-9.06-16.18-5.07-3.69-10.81-4.8-16.95-4.47a22.08,22.08,0,0,0-17,8.69,26.23,26.23,0,0,0-5.24,12.89Z"/><path d="M421.81,120.47h25.61v97.77H421.81V206.15c-1.71,1.52-3.19,3-4.83,4.28-6.1,4.81-12.79,8.41-20.59,9.61a52.35,52.35,0,0,1-20.71-.59c-10-2.47-16.07-8.94-18.76-18.75a36.77,36.77,0,0,1-1.25-9.75V120.47h25.66v58.3a43.07,43.07,0,0,0,.64,7.38c1.09,6.17,5.09,9.65,11,11,9.44,2.13,17.79-.17,25-6.6.56-.49,1.1-1,1.66-1.5a6.07,6.07,0,0,0,2.19-5c-.1-20.7-.06-41.4-.06-62.11a13.71,13.71,0,0,0,0-1.44Z"/><path d="M582.81,120.37v22.46H563v75.4H537.06V144.38c0-1.51,0-1.52-1.55-1.52H520.89V120.41H537c0-.54.06-1,.06-1.45a65.17,65.17,0,0,1,.86-13.24A30.12,30.12,0,0,1,563.82,81.5a46,46,0,0,1,23.31,2.68,22.61,22.61,0,0,1,7.93,5.39c.32.33.59.56.24,1.11-3.13,4.83-6.23,9.7-9.27,14.43a42.71,42.71,0,0,0-4.81-2.73,14.94,14.94,0,0,0-9.58-.63,11.19,11.19,0,0,0-8.43,10.1c-.3,2.79-.25,5.61-.36,8.52Z"/><path d="M470.78,142.86H454.54V120.41h16.19v-1.48a69.78,69.78,0,0,1,.81-13A30.19,30.19,0,0,1,497.47,81.5a46.17,46.17,0,0,1,23.28,2.68,22.57,22.57,0,0,1,8.53,6l-9.71,15.14a13.83,13.83,0,0,0-6.56-3.57,15.51,15.51,0,0,0-7.94,0,10.8,10.8,0,0,0-7.54,7.22c-1.25,3.71-.88,7.49-.93,11.38h19.85v22.41H496.62v75.42H470.78Z"/><path d="M118,80a30.61,30.61,0,0,1,4.81,1.39q26.4,12.25,52.74,24.61l8.76,4.08a13.06,13.06,0,0,1,1.45.74c1.55,1,1.56,2.45,0,3.33s-3.16,1.55-4.77,2.3q-29.18,13.63-58.36,27.24a10.53,10.53,0,0,1-9.17,0q-31.06-14.46-62.06-29a7.89,7.89,0,0,1-1.39-.79,1.62,1.62,0,0,1,0-2.87,7.34,7.34,0,0,1,1.39-.81q30.88-14.45,61.82-28.85A30.22,30.22,0,0,1,118,80Z"/><path d="M693.94,218.26V120.48H719.5v12.94l.24.15a47,47,0,0,1,13.83-11.08,35.58,35.58,0,0,1,17.2-4.5v25c-1.6-.14-3.17-.33-4.75-.4a33.72,33.72,0,0,0-23.69,8l-.31.26a6.79,6.79,0,0,0-2.51,5.63c.11,20.15.06,40.31.06,60.48v1.34Z"/><path d="M67,180.16a34.56,34.56,0,0,1,4.8,1.44c13.82,6.4,27.6,12.87,41.4,19.29a10.67,10.67,0,0,0,9.35,0c14-6.51,27.95-13.08,42-19.56a10.48,10.48,0,0,1,8.9,0c3.78,1.67,7.51,3.48,11.25,5.24,1,.46,2.13.86,2.12,2.19s-1.16,1.73-2.13,2.19L140,211.85c-5.75,2.68-11.48,5.39-17.23,8.05a10.9,10.9,0,0,1-9.54,0q-20.79-9.63-41.58-19.38l-20-9.35a8.83,8.83,0,0,1-2-1.19,1.44,1.44,0,0,1,0-2.38,7,7,0,0,1,1.71-1.07c3.62-1.71,7.22-3.48,10.89-5a35.07,35.07,0,0,1,4.8-1.33Z"/><path d="M118,182.75a10.23,10.23,0,0,1-5-1.07q-21.28-10-42.58-19.91l-19.17-9c-1-.46-2.13-.86-2.09-2.19s1.16-1.72,2.14-2.18c3.53-1.66,7.07-3.3,10.6-5a11.24,11.24,0,0,1,10-.08l41.58,19.39a10.45,10.45,0,0,0,9.06,0c13.93-6.48,27.9-13,41.86-19.51a10.73,10.73,0,0,1,9.27,0c3.83,1.73,7.66,3.54,11.44,5.33a5,5,0,0,1,1,.63,1.59,1.59,0,0,1,0,2.79,15.9,15.9,0,0,1-2.51,1.32l-53.56,25c-2.4,1.12-4.76,2.33-7.2,3.33a42.38,42.38,0,0,1-4.73,1.35Z"/></svg>