<svg xmlns="http://www.w3.org/2000/svg" viewBox="0 0 194.77 193.54"><defs/><g id="Layer_2" data-name="Layer 2"><g id="Layer_1-2" data-name="Layer 1"><rect width="91.77" height="91.77" rx="13.32" ry="13.32" fill="#000101"/><rect width="91.77" height="91.77" x="103" rx="13.32" ry="13.32" fill="#000101"/><rect width="91.77" height="91.77" y="101.76" rx="13.32" ry="13.32" fill="#000101"/><rect width="91.77" height="91.77" x="103" y="101.77" rx="13.32" ry="13.32" fill="#000101"/><path d="M148.79 27.24a19.54 19.54 0 0 1 14 5.33A17.69 17.69 0 0 1 168.42 46a17.41 17.41 0 0 1-5.65 13.31 20.1 20.1 0 0 1-14.26 5.27 19 19 0 0 1-13.69-5.27 17.56 17.56 0 0 1-5.48-13.2 18 18 0 0 1 5.51-13.48 19.23 19.23 0 0 1 13.94-5.39zm.21 4.94a14.1 14.1 0 0 0-10.25 3.9 13.29 13.29 0 0 0-4 10 13.06 13.06 0 0 0 4 9.78 15 15 0 0 0 20.25-.1 13.31 13.31 0 0 0 4.07-9.91 13 13 0 0 0-4.07-9.72 13.81 13.81 0 0 0-10-3.94z" fill="#fff"/><path d="M31.18 164.14v-33a1.61 1.61 0 0 1 1.72-1.66h10.54q7.42 0 11.73 2.22a16.79 16.79 0 0 1 6.83 6.57 18.19 18.19 0 0 1 2.55 9.42A17.92 17.92 0 0 1 53 164.45a18.39 18.39 0 0 1-3.77 1.08 50.35 50.35 0 0 1-6.56.27h-9.8a1.68 1.68 0 0 1-1.69-1.66zm11.71-30h-6.5v27H43a26.62 26.62 0 0 0 6.06-.54 14.27 14.27 0 0 0 3.6-1.35 12.34 12.34 0 0 0 2.64-2 13.46 13.46 0 0 0 3.85-9.86 12.48 12.48 0 0 0-4-9.55 12.63 12.63 0 0 0-3.34-2.26 14 14 0 0 0-3.58-1.17 36.44 36.44 0 0 0-5.34-.28z" fill="#fff"/><path d="M157.12 161.16h-13.58v-11.28h12.63a2.33 2.33 0 0 0-.05-4.65h-12.58v-11.1h13.07a2.32 2.32 0 1 0 0-4.64H140a1.63 1.63 0 0 0-1.65 1.64v33a1.66 1.66 0 0 0 1.65 1.67h17.14a2.33 2.33 0 0 0 0-4.66z" fill="#fff"/><path d="M58.78 57.37a4.54 4.54 0 0 0-1 .21 22.28 22.28 0 0 1-9.43 2.14A14.47 14.47 0 0 1 38 55.86 13 13 0 0 1 33.91 46 13.09 13.09 0 0 1 38 36.15a14.41 14.41 0 0 1 10.4-3.94 22.79 22.79 0 0 1 8.91 1.87 2.67 2.67 0 0 0 1.11.29 2.46 2.46 0 0 0 2.46-2.46 2.73 2.73 0 0 0-1.58-2.3 31.06 31.06 0 0 0-11.15-2.35 19.42 19.42 0 0 0-14 5.41A17.74 17.74 0 0 0 28.52 46 18.3 18.3 0 0 0 31 55.32a18 18 0 0 0 6.71 6.74A20.37 20.37 0 0 0 48 64.5a28.14 28.14 0 0 0 11.62-2.33 2.48 2.48 0 0 0-.87-4.81z" fill="#fff"/></g></g></svg>
