<svg xmlns="http://www.w3.org/2000/svg" viewBox="0 0 698.46 176.96">
  <defs/>
  <g id="Layer_2" data-name="Layer 2">
    <g id="Layer_2-2" data-name="Layer 2">
      <path fill="#fff" d="M153.83 93.42l-45 8.15a22.34 22.34 0 0 1-5.19 4.61 16.15 16.15 0 0 1-12.83 1.17 27.68 27.68 0 0 1-5.14-1.64l-11 1.51 6.66 55.58 77-13.88zm-68.55 64.09l-.64-6 12.58-19.19 14.28 4.17 12.29-20.52 14.72 9.71 11.19-23.46 4 42.73zM82 102.91A77.19 77.19 0 0 1 68.25 91.4c-.42-.32-.35-1.73-.35-1.73 2.27 1.76 11.67 8.48 21.61 11.55a17.62 17.62 0 0 0 13.56-1.16 34.65 34.65 0 0 0 10.42-9.18l.47.82a20.88 20.88 0 0 1-1.8 4.23 11.55 11.55 0 0 0 3.1 1.13l8.23-1.28c3-4.77 5.07-12.47 2.82-19.8-1.29-4.2-8-12.57-8.49-13-1.69-1.62.28-7.89-3.06-14.73C111.21 41 102 33.44 98 30.16c1.18.86 8.45 3.79 11.83 7.87.32-.42.45-2.62.74-3.17-2.91-3.8-3.13-10.58-3.13-12.39a20.59 20.59 0 0 0-1.69-7.08 11.31 11.31 0 0 1 3.66 6.26 25.56 25.56 0 0 0 5.28 11.52c4.74 5.9 9 8.93 11.18 6.75 2.59-2.62-2.62-14.34-9.28-20.88-7.76-7.63-9.8-6.64-14.36-5-3.64 1.29-5.6 11.62-15.08 11.42-1.61-.18-5.74-.29-7.79-.27 1.07-1.49 2-2.64 2-2.64a48.34 48.34 0 0 0-5.89 2.9l-.21-.32A17.06 17.06 0 0 1 77.13 22a53.84 53.84 0 0 0-4.86 3.35 7.38 7.38 0 0 1 2-3.76s-3.21.58-7.3 5.08c-4.65 1.27-5.77 2.11-9.47 3.74-6-1.31-8.86-3.43-11.57-7.34-2.06-3-5.73-3.43-9.48-1.89-5.45 2.26-12.37 5.35-12.37 5.35s2.25-.09 4.6 0a59.77 59.77 0 0 0-6.31 2.89s1.51-.05 3.37 0a31.84 31.84 0 0 1-3.21 2.38 45.62 45.62 0 0 0-5.33 4.6A31.64 31.64 0 0 1 21 35c-1.25 2.87-3.74 5-3.28 8.5.44 3.21 4.38 9.82 9.47 13.88.44.35 7.39 6.78 12.63 4.14s7.31-5 8.17-8.59c1-4.14.44-7.27-1.72-16.25-.71-3-2.57-9.07-3.47-12l.2-.15c1.71 3.62 6.1 13.15 7.87 19.55 2.76 10 1.89 15.05.63 16.91-3.8 5.6-13.56 6.34-18 3.24C32.81 75 35.21 79.72 36 82.11c-.41 2.74 1.37 7.83 1.37 7.83a9.41 9.41 0 0 1 1-3.53 23.11 23.11 0 0 0 1.59 6 11.2 11.2 0 0 1 .54-3.72 24.81 24.81 0 0 0 2.35 3 16.26 16.26 0 0 0 2.5 5 13.57 13.57 0 0 1-.12-3.18c4.07 3.91 4.77 9.61 5.18 14 1.14 12.05-19 21.63-22.9 29.17-3 4.46-4.73 11.53.28 15.69 12.11 10.06 7.46 12.83 13.52 17.24 8.31 6.06 18.72 3.35 22.26-1.59 4.93-6.87 3.66-13.35 1.83-19.41-1.4-4.81-5.28-12.68-10.1-15.73a21 21 0 0 0-13.75-3.28l.37-.43c5.83-1.16 11.92-.52 16.33 2.32 5 3.22 9.58 8.74 12 17.19 2.71-.39 3.1-.56 5.58-.92l-5.59-43.56zm28.09-54.53c5.15 2.4 4.48 7 4.62 9.64a7.68 7.68 0 0 1 0 1.65 7 7 0 0 0-3.63-.59 13.08 13.08 0 0 0-1.53.16c-1.9-1-3-3-4.07-5.13-.1-.19-.17-.37-.24-.54l-.09-.23v-.11c-.57-1.81-.19-2.17.06-2.73s1.18-1-.19-1.52a2.61 2.61 0 0 0-.43-.1c.87-1.13 3.6-1.41 5.55-.51zm-6.37 29.91c1-.78 5.57-2.25 9.8-2.75 2.22-.26 5.38-.41 6.06 0 1.34.74 1.34 3 .42 5.14-1.33 3.07-3.22 6.46-5.36 6.75-3.49.46-6.79-1.43-10.56-4.24-1.3-1.05-2.08-3.5-.31-4.91zM70.7 55c5.54-3.77 12.67-2.29 11.47-1.15-2.28 2.16.75 1.53 1.08 5.53a6.88 6.88 0 0 1-1.55 5.49 35.28 35.28 0 0 0-6.35 1.47 32.31 32.31 0 0 0-3.94 1.57 9.33 9.33 0 0 1-1-.77c-3.92-3.43-3.79-9.4.29-12.14z"/>
      <path fill="#7749a3" d="M158.25 87.23l-4.44.85L145.28 0 0 16.84l17.9 145.21 17-2.47a38.32 38.32 0 0 0-7.09-7.29c-5-4.16-3.24-11.23-.28-15.69 3.9-7.54 24-17.12 22.9-29.17-.41-4.38-1.11-10.08-5.18-14a13.56 13.56 0 0 0 .12 3.18 16.26 16.26 0 0 1-2.5-5 24.83 24.83 0 0 1-2.35-3 11.2 11.2 0 0 0-.52 3.75 23.11 23.11 0 0 1-1.59-6 9.41 9.41 0 0 0-1 3.53s-1.8-5.04-1.41-7.78c-.81-2.38-3.21-7.12-2.54-17.87 4.44 3.1 14.2 2.36 18-3.24 1.26-1.86 2.13-6.92-.63-16.91-1.75-6.4-6.13-15.93-7.83-19.55l-.2.15c.9 2.92 2.76 9 3.47 12 2.16 9 2.74 12.11 1.72 16.25-.86 3.6-2.93 6-8.17 8.59s-12.19-3.79-12.63-4.14c-5.09-4.06-9-10.67-9.47-13.88-.46-3.52 2-5.63 3.28-8.5a31.64 31.64 0 0 0-3.79 1.42 45.62 45.62 0 0 1 5.33-4.6 31.82 31.82 0 0 0 3.21-2.38h-3.37a59.77 59.77 0 0 1 6.31-2.89c-2.35-.1-4.6 0-4.6 0s6.91-3.12 12.37-5.39c3.76-1.54 7.42-1.09 9.49 1.89 2.71 3.9 5.55 6 11.57 7.34 3.7-1.64 4.82-2.48 9.47-3.75 4.09-4.5 7.3-5.08 7.3-5.08a7.38 7.38 0 0 0-2 3.76A53.79 53.79 0 0 1 77.13 22a17.06 17.06 0 0 0-1.9 3.14l.21.32a48.35 48.35 0 0 1 5.89-2.9s-.91 1.15-2 2.64c2 0 6.18.09 7.79.27 9.48.2 11.45-10.13 15.08-11.42 4.56-1.63 6.6-2.61 14.36 5 6.66 6.54 11.87 18.26 9.28 20.88-2.17 2.18-6.44-.85-11.18-6.75a25.56 25.56 0 0 1-5.28-11.52 11.31 11.31 0 0 0-3.66-6.27 20.59 20.59 0 0 1 1.69 7.08c0 1.81.23 8.59 3.13 12.39-.29.55-.42 2.75-.74 3.17-3.38-4.09-10.65-7-11.83-7.87 4 3.28 13.22 10.83 16.76 18.06 3.35 6.83 1.37 13.1 3.06 14.73.48.46 7.2 8.83 8.49 13 2.26 7.33.13 15-2.82 19.8l-8.24 1.28a11.55 11.55 0 0 1-3.1-1.13 20.88 20.88 0 0 0 1.8-4.23l-.47-.82a34.66 34.66 0 0 1-10.42 9.18 17.62 17.62 0 0 1-13.56 1.16c-9.94-3.07-19.35-9.79-21.61-11.55 0 0-.07 1.41.35 1.73A77.19 77.19 0 0 0 82 102.91l-11.84 1.3 5.59 43.56c-2.48.35-2.87.53-5.58.92-2.4-8.45-7-14-12-17.19-4.41-2.84-10.5-3.47-16.33-2.32l-.37.43a21 21 0 0 1 13.75 3.28c4.82 3 8.71 10.92 10.14 15.66 1.83 6.06 3.1 12.54-1.83 19.41-3.51 4.88-13.75 7.58-22 1.75 2.21 3.55 5.19 6.46 9.21 7 6 .81 11.64-.23 15.54-4.23 3.33-3.42 5.1-10.58 4.63-18.12l5.27-.76 1.9 13.53 87.22-10.5zm-83.52 20l11-1.51a27.68 27.68 0 0 0 5.14 1.64 16.15 16.15 0 0 0 12.83-1.17 22.34 22.34 0 0 0 5.19-4.61l45-8.15 4.58 55.5-77 13.88zm63.78 18.42l-14.72-9.71-12.29 20.51-14.28-4.17-12.58 19.2.64 6 68.4-12.6-4-42.73zM70.7 55c-4.08 2.78-4.21 8.75-.3 12.13a9.47 9.47 0 0 0 1 .77 32.3 32.3 0 0 1 3.94-1.57 35.28 35.28 0 0 1 6.36-1.47 6.89 6.89 0 0 0 1.55-5.49c-.33-4-3.36-3.36-1.08-5.53 1.2-1.16-5.93-2.65-11.47 1.16zm33.42 28.18c3.77 2.82 7.07 4.7 10.56 4.24 2.14-.28 4-3.67 5.36-6.75.92-2.12.91-4.4-.42-5.14-.68-.37-3.84-.23-6.06 0-4.23.5-8.79 2-9.8 2.75-1.76 1.41-.98 3.86.36 4.87zm1-29.93v.11l.09.23c.07.17.14.35.24.54 1 2.12 2.17 4.11 4.07 5.13a12.9 12.9 0 0 1 1.53-.16 7 7 0 0 1 3.63.59 7.67 7.67 0 0 0 0-1.65c-.14-2.68.53-7.24-4.62-9.64-1.95-.9-4.68-.63-5.58.5a2.52 2.52 0 0 1 .43.1c1.37.48.44.95.19 1.52s-.55.89.02 2.7z"/>
      <path d="M227.56 126.07h-32.65V50.9h32.65q35.28 0 35.3 35.53 0 39.63-35.3 39.64zM208.87 114h16.59q23.43 0 23.43-27.55 0-23.45-23.44-23.45h-16.58z" fill="#7749a3" fill-rule="evenodd"/>
      <path d="M277.48 126.07h-14.34l31.98-75.17h15.01l32.66 75.17h-15.01l-9.48-20.51h-24.12l4.79-12.08h15.65l-12.33-28.24-24.81 60.83z" fill="#7749a3" fill-rule="evenodd"/>
      <path d="M334.9 50.9h57.15v12.08h-21.59v63.09h-13.95V62.98H334.9V50.9z" fill="#7749a3" fill-rule="evenodd"/>
      <path d="M399.23 126.07H384.9l31.97-75.17h15.01l32.66 75.17h-15.02l-9.48-20.51h-24.13l4.79-12.08h15.65l-12.32-28.24-24.8 60.83z" fill="#7749a3" fill-rule="evenodd"/>
      <path d="M506.46 126.07H473.8V50.9h32.65q35.3 0 35.3 35.53 0 39.63-35.29 39.64zM487.76 114h16.59q23.43 0 23.45-27.55Q527.8 63 504.35 63h-16.59z" fill="#7749a3" fill-rule="evenodd"/>
      <path d="M551.21 88.59q0-38.24 37.83-38.23 37.24 0 37.23 38.23 0 38-37.23 38-36.15.02-37.83-38zm37.79 25.9q22.74 0 22.75-26.23 0-25.82-22.75-25.83-23.34 0-23.33 25.83.03 26.24 23.33 26.23z" fill="#7749a3" fill-rule="evenodd"/>
      <path d="M684.5 95.65v17.6a34.66 34.66 0 0 1-8.64 1.25q-25.6 0-25.59-27.07 0-25 27.12-25a52.51 52.51 0 0 1 21.07 4.21V54a62.49 62.49 0 0 0-22.12-3.67q-40.55 0-40.56 37.08 0 39.16 39.87 39.17 13.71 0 22.81-4v-39.3h-22.54l-4.72 12.37z" fill="#7749a3" fill-rule="evenodd"/>
    </g>
  </g>
</svg>
