<svg id="Layer_1" data-name="Layer 1" xmlns="http://www.w3.org/2000/svg" viewBox="0 0 800 300"><defs><style>.cls-1{fill:none;}.cls-2{fill:#ff3008;}</style></defs><title>whiteArtboard 1</title><rect class="cls-1" width="800" height="300"/><g id="Layer_2" data-name="Layer 2"><g id="Layer_1-2" data-name="Layer 1-2"><path class="cls-2" d="M175.84,128a37.7,37.7,0,0,0-33.41-20H36.61a3.64,3.64,0,0,0-2.55,6.22l23,23.18a10.85,10.85,0,0,0,7.7,3.2h74.6a9.62,9.62,0,1,1,.2,19.24H88.14a3.64,3.64,0,0,0-2.57,6.22l23.06,23.2a10.83,10.83,0,0,0,7.69,3.2h23.26c30.26,0,53.14-32.35,36.26-64.47"/><path class="cls-2" d="M239.41,131.68v37.07h9.48A18.31,18.31,0,0,0,267,150.23h0a18,18,0,0,0-17.45-18.54H239.41Zm9.48-11.6c17.67,0,31,13.35,31,30.13s-13.36,30.22-31,30.22H228a1.51,1.51,0,0,1-1.51-1.51V121.6a1.51,1.51,0,0,1,1.51-1.51Z"/><path class="cls-2" d="M325.48,170a19.83,19.83,0,1,0-19.78-19.89A19.83,19.83,0,0,0,325.48,170m0-51.37c18.6,0,32.82,14.29,32.82,31.5s-14.22,31.5-32.82,31.5-32.69-14.18-32.69-31.46,14.22-31.5,32.7-31.5"/><path class="cls-2" d="M403.47,170a19.83,19.83,0,1,0-.08,0h.08m0-51.37c18.54,0,32.76,14.22,32.76,31.5s-14.28,31.5-32.76,31.5-32.81-14.21-32.81-31.49,14.22-31.5,32.82-31.5"/><path class="cls-2" d="M479.6,131.68H466.23v16H479.6a7.83,7.83,0,0,0,8.15-7.46v-.29a7.92,7.92,0,0,0-7.64-8.19h-.55M453.3,121.6a1.51,1.51,0,0,1,1.51-1.51H480c12,0,20.68,8.79,20.68,19.83a19.5,19.5,0,0,1-10.77,17.67l11.6,20.55a1.51,1.51,0,0,1-1.37,2.34H489.95a1.51,1.51,0,0,1-1.37-.81l-11.19-20.3h-11.2v19.49a1.51,1.51,0,0,1-1.51,1.51h-9.82a1.51,1.51,0,0,1-1.51-1.51Z"/><path class="cls-2" d="M534.36,132V169h9.48A18.31,18.31,0,0,0,562,150.55v0A18,18,0,0,0,544.52,132H534.36Zm9.48-11.64c17.67,0,31,13.36,31,30.22s-13.36,30.22-31,30.22H523a1.51,1.51,0,0,1-1.51-1.51V121.9a1.51,1.51,0,0,1,1.51-1.51Z"/><path class="cls-2" d="M614.31,135.07,607,154.9h14.65Zm-11.64,31-4.8,13.2a1.51,1.51,0,0,1-1.51,1H585.95a1.51,1.51,0,0,1-1.51-2.13L606.93,121a1.51,1.51,0,0,1,1.51-1H620.1a1.51,1.51,0,0,1,1.51,1l22.5,57.22a1.51,1.51,0,0,1-1.51,2.13H632.2a1.51,1.51,0,0,1-1.51-1l-4.8-13.2Z"/><path class="cls-2" d="M656.2,136.36c0-9.48,8.19-17.67,21.15-17.67a26.76,26.76,0,0,1,18.76,7.06,1.51,1.51,0,0,1,.08,2.12l-.08.08-5.82,5.73a1.51,1.51,0,0,1-2.12,0,15.18,15.18,0,0,0-10-3.94c-5.17,0-9,3-9,6.47,0,11.2,30.57,4.74,30.57,26.3,0,10.92-8.26,19.19-22.86,19.19A30.62,30.62,0,0,1,655.06,173a1.51,1.51,0,0,1-.08-2.12l.08-.08,5.58-5.58a1.51,1.51,0,0,1,2.12-.05l.05.05A19.28,19.28,0,0,0,676,170.55c6.47,0,10.73-3.45,10.73-7.77,0-11.2-30.56-4.74-30.56-26.3"/><path class="cls-2" d="M755.16,121.54v22.66H729.29V121.54a1.51,1.51,0,0,0-1.51-1.51H718a1.51,1.51,0,0,0-1.51,1.51v57.22a1.51,1.51,0,0,0,1.51,1.51h9.82a1.51,1.51,0,0,0,1.51-1.51v-23h25.86v23a1.51,1.51,0,0,0,1.51,1.51h9.82a1.51,1.51,0,0,0,1.51-1.51V121.54a1.51,1.51,0,0,0-1.51-1.51h-9.82A1.51,1.51,0,0,0,755.16,121.54Z"/></g></g></svg>