<svg id="Layer_1" data-name="Layer 1" xmlns="http://www.w3.org/2000/svg" viewBox="0 0 800 300"><defs><style>.cls-1{fill:none;}</style></defs><title>whiteArtboard 1</title><rect class="cls-1" width="800" height="300"/><path d="M57.62,168.88c0,5.28,1.32,5.91,7.81,6.54v2H40v-2c5.28-.63,6.54-1.32,6.54-6.54V131.52c0-5.91-1.27-6.54-6.54-6.54v-2H85.64v11.77h-2c-2-5.86-4-7.81-15-7.81h-7.6c-2.59,0-3.27.63-3.27,2.64v17H66.7c8.49,0,10.55-1.32,11.71-7.23h2V159h-1.9c-1.53-6.54-4.59-7.81-11.77-7.81H57.62Zm52.13,0c0,5.28,1.32,5.91,7.81,6.54v2H90.86v-2c6.49-.63,7.81-1.32,7.81-6.54V131.52c0-5.91-1.32-6.54-7.81-6.54v-2h26.7v2c-6.49,0-7.81.63-7.81,6.54Zm60.57-36c0-5.28-2-7.18-7.81-7.86v-2h19.57v2c-5.86.63-7.81,2.64-7.81,7.86v45.85H171.7l-36.93-43.21v31.66c0,5.28,2,7.86,7.81,8.49v2H122.78v-2c5.86-.63,7.81-3.27,7.81-8.49V130.2a10.55,10.55,0,0,0-7.81-5.28V123h15l32.55,37.3Zm63.32,44.53v-2c-3.9,0-5.28-2-7.18-7.18l-19-46.54h-2.59l-20.21,48.44a7.76,7.76,0,0,1-6.54,5.28v2h17v-2c-3.27,0-5.28-.63-5.28-3.9a58,58,0,0,1,3.17-9.87h19.57a58,58,0,0,1,3.27,9.81c0,3.27-2,3.9-5.86,3.9v2Zm-39.2-19.63,8.49-21.63,7.81,21.63Zm86-24.9c0-5.28-1.32-7.18-7.18-7.86v-2h18.94v2c-5.86.63-7.18,2.64-7.18,7.86v45.85h-2.59l-36.93-43.21v31.66c0,5.28,1.32,7.86,7.18,8.49v2H233.53v-2c5.91-.9,7-3.48,7-8.76V129.94a9.66,9.66,0,0,0-7.18-5.28V123h15l31.92,37.3Zm65.8,31.66a25.12,25.12,0,0,1-24.11,14.4c-17.57,0-28-11.77-28-28.81a28.33,28.33,0,0,1,28.28-28.39h.42a90.75,90.75,0,0,1,15,3.27c1.32,0,2-1.32,3.27-3.27h2.59L345,139.38h-2.59A20.21,20.21,0,0,0,324.13,125c-13,0-18.26,14.4-18.26,24.9,0,14.4,5.86,24.22,19.52,24.22A24.27,24.27,0,0,0,344.28,163ZM369,169.09c0,5.28,2,5.91,8.49,6.54v2H350.19v-2c6.54-.63,8.49-1.32,8.49-6.54V131.52c0-5.91-2.11-6.54-8.49-6.54v-2h27.49v2c-6.54,0-8.49.63-8.49,6.54Zm65.16,8.49v-2c-3.9,0-5.28-2-7.18-7.18l-18.84-46.75h-2.59l-20.21,48.44a7.76,7.76,0,0,1-6.54,5.28v2h17.57v-2c-3.9,0-5.86-.63-5.86-3.9a57.51,57.51,0,0,1,3.27-9.81h19.52a57.46,57.46,0,0,1,3.27,9.81c0,3.27-2,3.9-5.86,3.9v2Zm-39-19.84,8.49-21.63,7.81,21.63Zm41.74,19.63v-2c5.28-.63,7.18-1.32,7.18-6.54V131.52c0-5.91-2-6.54-7.18-6.54v-2H462.1v2c-5.86,0-7.81.63-7.81,6.54v38c0,3.27,1.32,4.59,7.18,4.59,9.76,0,15.83-2,20.21-11.13h2l-3.9,14.4Zm80.78-2c5.91-.69,7.76-1.32,7.76-6.54V127h-7.07c-5.86,0-8.49,2.64-10.55,9.81h-2L507.27,123h47.49l.63,13.77h-2c-1.64-7.23-4.48-9.81-10.34-9.81H536v41.89c0,5.28,2,5.91,7.81,6.54v2H517.66Zm60.52-6.54c0,5.28,1.32,5.91,7.81,6.54v2H559.4v-2c6.54-.63,7.81-1.32,7.81-6.54V131.52c0-5.91-1.32-6.54-7.81-6.54v-2h26.7v2c-6.49,0-7.81.63-7.81,6.54Zm62-45.85h18.89v2c-5.28,0-6.54.63-6.54,6.54v37.36c0,5.28,1.32,5.91,6.54,6.54v2H634.37v-2c5.86-.63,7.18-1.32,7.18-6.54V130.2L623.29,178h-2.9l-17.57-47.8v36.93c0,5.28,1.32,7.86,7.18,8.49v2H591.11v-2c5.86-.63,7.18-3.27,7.18-8.49V130.2c0-3.9-2-5.28-7.18-5.28V123h19.57L625,160.33Zm26.7,54.35v-2c5.28-.63,6.54-1.32,6.54-6.54V131.52c0-5.91-1.32-6.54-6.54-6.54v-2h45.64v11.77h-2c-2-5.91-3.9-7.86-15-7.86h-7.81c-2.59,0-3.27.63-3.27,2.64v17h9.13c8.49,0,10.55-1.32,11.71-7.23h2V159h-2c-1.32-6.54-4.59-7.86-11.71-7.86h-9.13v18.36c0,3.27.63,4.59,10.55,4.59s15.83-2,20.21-11.13h2L714,177.37Zm54.71-17h2a20.31,20.31,0,0,0,17.62,14.4,8.55,8.55,0,0,0,9.13-9.18c0-12.45-28-14.4-28-30.13a14.72,14.72,0,0,1,15.6-13.79l.23,0a82,82,0,0,1,14.14,2.69,4.33,4.33,0,0,0,3.27-2.64h2v17h-2C753,130.89,747.81,125,739.79,125a7.18,7.18,0,0,0-7.81,7.86C732,144,760,144,760,163.6a15.83,15.83,0,0,1-16.51,15.11l-.42,0c-9.76,0-12.4-3.27-15.83-3.27-2,0-2.59.63-3.27,2.64h-2.59Z"/></svg>