<svg id="Layer_1" data-name="Layer 1" xmlns="http://www.w3.org/2000/svg" viewBox="0 0 800 300"><defs><style>.cls-1{fill:none;}.cls-2,.cls-3{fill:#181616;}.cls-2{fill-rule:evenodd;}</style></defs><title>whiteArtboard 1</title><rect class="cls-1" width="800" height="300"/><path class="cls-2" d="M152,74.43a77.83,77.83,0,0,0-24.6,151.67c3.89.72,5.32-1.69,5.32-3.74,0-1.86-.07-8-.11-14.49-21.65,4.71-26.22-9.18-26.22-9.18-3.54-9-8.64-11.39-8.64-11.39-7.06-4.83.53-4.73.53-4.73,7.81.55,11.93,8,11.93,8,6.94,11.9,18.21,8.46,22.65,6.47.7-5,2.71-8.46,4.94-10.41-17.29-2-35.46-8.64-35.46-38.46a30.12,30.12,0,0,1,8-20.89c-.81-2-3.47-9.88.75-20.6,0,0,6.54-2.09,21.41,8a73.8,73.8,0,0,1,39,0c14.85-10.07,21.38-8,21.38-8,4.24,10.72,1.57,18.64.76,20.6a30.06,30.06,0,0,1,8,20.89c0,29.89-18.21,36.47-35.54,38.4,2.79,2.42,5.28,7.15,5.28,14.41,0,10.41-.09,18.79-.09,21.36,0,2.07,1.4,4.5,5.34,3.73A77.84,77.84,0,0,0,152,74.43Z"/><path class="cls-3" d="M103.7,186.17c-.17.39-.78.5-1.33.24s-.88-.78-.7-1.17.78-.51,1.34-.24.89.79.69,1.17Zm-1-.71"/><path class="cls-3" d="M106.85,189.69c-.37.34-1.1.18-1.59-.36a1.19,1.19,0,0,1-.23-1.62c.38-.34,1.09-.18,1.6.36s.61,1.27.22,1.62Zm-.74-.8"/><path class="cls-3" d="M109.92,194.17c-.48.33-1.26,0-1.74-.67s-.48-1.52,0-1.86,1.25,0,1.74.65.48,1.53,0,1.87Zm0,0"/><path class="cls-3" d="M114.12,198.5c-.43.47-1.34.34-2-.3a1.5,1.5,0,0,1-.44-2c.43-.47,1.35-.34,2,.3s.88,1.52.43,2Zm0,0"/><path class="cls-3" d="M119.92,201c-.19.61-1.06.89-1.94.63s-1.46-1-1.28-1.6,1.06-.9,1.95-.63,1.46,1,1.27,1.59Zm0,0"/><path class="cls-3" d="M126.29,201.48c0,.64-.73,1.17-1.65,1.19s-1.68-.5-1.69-1.13.73-1.17,1.66-1.19,1.68.5,1.68,1.14Zm0,0"/><path class="cls-3" d="M132.22,200.47c.11.63-.53,1.27-1.45,1.44s-1.74-.22-1.86-.84.54-1.29,1.44-1.45,1.74.22,1.86.85Zm0,0"/><g id="Layer_2" data-name="Layer 2"><g id="Layer_1-2" data-name="Layer 1-2"><path d="M350.21,141.78h-39a1.83,1.83,0,0,0-1.82,1.82v19.07a1.83,1.83,0,0,0,1.82,1.83h15.21v23.7s-3.42,1.16-12.89,1.16c-11.15,0-26.72-4.07-26.72-38.3s16.24-38.75,31.46-38.75c13.17,0,18.85,2.32,22.46,3.44a1.83,1.83,0,0,0,2.18-1.79l4.36-18.43a1.7,1.7,0,0,0-.7-1.42c-1.47-1.06-10.41-6.06-33-6.06-26,0-52.75,11.08-52.75,64.33s30.58,61.2,56.36,61.2c21.34,0,34.28-9.12,34.28-9.12a1.57,1.57,0,0,0,.59-1.38V143.61a1.82,1.82,0,0,0-1.8-1.83Z"/><path d="M551.24,94.5a1.82,1.82,0,0,0-1.74-1.89H527.58a1.83,1.83,0,0,0-1.93,1.72q0,.09,0,.17v42.39H491.41V94.5a1.82,1.82,0,0,0-1.8-1.83H467.69a1.83,1.83,0,0,0-1.87,1.79V209.36a1.83,1.83,0,0,0,1.82,1.84h21.91a1.83,1.83,0,0,0,1.82-1.84h0V160.22h34.28v49.15a1.83,1.83,0,0,0,1.82,1.84h22a1.83,1.83,0,0,0,1.82-1.84h0Z"/><ellipse cx="377.49" cy="109.52" rx="14.16" ry="14.31"/><path d="M390.08,185.12V132.06a1.83,1.83,0,0,0-1.82-1.83H366.35a2.1,2.1,0,0,0-1.91,2v76c0,2.23,1.39,2.9,3.2,2.9h19.74c2.17,0,2.69-1.06,2.69-2.94Z"/><path d="M634.7,130.41H612.9a1.83,1.83,0,0,0-1.82,1.84h0v56.32a24.63,24.63,0,0,1-13.39,4c-7.86,0-9.95-3.57-9.95-11.26V132.24a1.83,1.83,0,0,0-1.82-1.84H563.82a1.83,1.83,0,0,0-1.82,1.84h0v52.84c0,22.85,12.73,28.44,30.26,28.44,14.37,0,26-7.94,26-7.94a46.14,46.14,0,0,0,.8,4.68,1.92,1.92,0,0,0,1.6,1H634.7a1.83,1.83,0,0,0,1.82-1.83V132.24a1.83,1.83,0,0,0-1.82-1.83Z"/><path d="M694.28,127.82a41,41,0,0,0-20.8,5.53V94.5a1.82,1.82,0,0,0-1.8-1.83h-22a1.82,1.82,0,0,0-1.82,1.82h0V209.36a1.83,1.83,0,0,0,1.82,1.84h15.28a1.82,1.82,0,0,0,1.6-1,35.81,35.81,0,0,0,.93-5.3s9,8.53,26.06,8.53c20,0,31.5-10.16,31.5-45.58S706.71,127.82,694.28,127.82Zm-8.6,64.75A26.14,26.14,0,0,1,673,188.91V152.49a29,29,0,0,1,11.26-3.66c7.85-.71,15.47,1.66,15.47,20.39-.06,19.78-3.48,23.69-14,23.37Z"/><path d="M453.2,130.22H436.73V108.45c0-.82-.43-1.29-1.38-1.29H412.88c-.88,0-1.29.39-1.29,1.22v22.55s-11.25,2.72-12,2.94a1.83,1.83,0,0,0-1.29,1.75v14.18a1.83,1.83,0,0,0,1.7,1.79h11.6v34c0,25.26,17.72,27.73,29.64,27.73a50.12,50.12,0,0,0,13.08-2.15,1.7,1.7,0,0,0,1-1.65V194a1.86,1.86,0,0,0-1.82-1.83c-1,0-3.42.39-5.94.39-8.09,0-10.84-3.76-10.84-8.63V151.6h16.47a1.83,1.83,0,0,0,1.82-1.83V132.06a1.82,1.82,0,0,0-1.79-1.84Z"/></g></g></svg>