<svg id="Layer_1" data-name="Layer 1" xmlns="http://www.w3.org/2000/svg" viewBox="0 0 800 300"><defs><style>.cls-1{fill:none;}.cls-2{fill:#f36;opacity:0.9;isolation:isolate;}</style></defs><title>whiteArtboard 1</title><rect class="cls-1" width="800" height="300"/><path class="cls-2" d="M381.24,206.94H401V120.89H381.24Zm72-50.88c-10.11-3.26-19.4-5.87-19.4-12.06v-.33c0-5.05,4.4-8.64,12.06-8.64a37.79,37.79,0,0,1,12.24,2.38l.12.06,1.13.42c3.12,1,11.53,2.34,18.65-8.71a60,60,0,0,0-31.62-9.75c-17.11,0-30.64,9.94-30.64,26.24V146c0,16.46,14.18,21.68,26.89,25.27,10.11,3.12,19.25,5.38,19.25,12.06v.33c0,5.71-4.9,9.32-13.37,9.32a42.69,42.69,0,0,1-17.95-4.38c-1.77-.78-11-3.91-18.85,7.3a60.46,60.46,0,0,0,36.31,12.7c17.95,0,31.95-9,31.95-27v-.31C480,165.7,465.83,160,453.28,156.06Zm-125.8,28.06-23.14-63.23H283.12l35.37,86.72h17.76l35.21-86.72H350.79Zm244.15-65c-26.41,0-46,20.37-46,45.15,0,24.61,19.4,44.66,45.64,44.66,26.54,0,46.13-20.37,46.13-45,0-24.78-19.43-44.82-45.83-44.82Zm0,72.73c-15.29,0-26.22-12.55-26.22-27.87,0-15.16,10.11-27.54,25.91-27.54,15.48,0,26.41,12.55,26.41,27.87,0,15.1-10.19,27.51-26.13,27.51ZM676,119.09c-13.37,0-21.35,7-26.9,15.16V120.89H629.31v86.06H649V158.36C649,145,657,137,668.43,137c11.71,0,18.42,7.66,18.42,21v48.91h19.72V152.18c0-20.06-11.25-33.09-30.64-33.09ZM493,206.94h19.72V120.89H493Z"/><path class="cls-2" d="M299.51,65.61A18.65,18.65,0,0,0,280.86,47H112.09A18.65,18.65,0,0,0,93.44,65.61h0V234.39A18.65,18.65,0,0,0,112.09,253H280.86a18.65,18.65,0,0,0,18.65-18.65ZM162.13,87.19a12.44,12.44,0,1,1-.13,0Zm84.23,118.65c-12.77,0-18.88-7.59-18.88-17.95a32.84,32.84,0,0,1,1.3-9.26l6.11-21.86a22.21,22.21,0,0,0,.93-6.67c0-7-4.26-11.29-11.11-11.29-8.7,0-14.44,6.25-17.4,18.29l-11.88,47.56H174.68l3.73-14.92c-6.1,10-14.56,16.22-25,16.22-12.59,0-18.52-7.25-18.52-18.18a42.61,42.61,0,0,1,1.11-9.32l9.42-38.57H130.82l4.44-16.45h35.17l-13.88,55.08a34.89,34.89,0,0,0-1.3,8.47c0,3.52,1.73,4.55,4.44,5.16,1.65.36,14.84.11,22-15.85l9.12-36.51H175.95l4.45-16.35h31.7L208,142.07c5.59-10.37,16.65-20.22,27.58-20.22,11.66,0,21.29,8.31,21.29,24.24a46.93,46.93,0,0,1-2,13.49l-5.92,21.28a24.57,24.57,0,0,0-.93,5.74c0,3.73,1.48,5.59,4.26,5.59s6.29-2,10.37-13.32l8.14,3.12c-4.84,16.8-13.53,23.84-24.42,23.84Z"/></svg>